<svg xmlns="http://www.w3.org/2000/svg"><style>:root svg:not(:target){display:none}</style><svg viewBox="0 0 27 34" fill="none" id="html-academy"><path d="M13.6426 0.0157537L13.5 0L0 1.40733V26.0129L13.5 34L27 26.0129V1.40733L13.6426 0.0157537ZM25.2344 25.0151L13.5 31.9573L1.76561 25.0151V14.9293L13.4507 21.8451L13.4701 23.0984L5.45351 18.3548L5.44295 19.5801L13.4894 24.3885L13.5088 25.675L5.46408 20.9174L5.45351 22.1427L13.5 26.9511L21.6239 22.1182V20.8929V16.909L25.2432 14.7595L25.2344 25.0151ZM25.2344 13.4519L22.0147 15.3319L20.5325 16.2071L13.4666 12.0201L13.456 13.2454L19.4957 16.818L19.4429 16.8495L19.3126 16.9247L18.4536 17.4166L13.4666 14.4689L13.456 15.6942L17.3921 18.0222L16.4591 18.6314L16.438 18.6436L13.4666 16.902L13.456 18.1273L15.4029 19.2615L13.4155 20.4483L1.7973 13.5762L13.4349 6.61831L25.2344 13.4519ZM25.2344 12.2266L13.4401 5.31075L1.76561 12.2196V2.9897L13.5 1.76442L25.2344 2.9897V12.2266Z" fill="currentColor"></path></svg><svg viewBox="0 0 78 81" fill="none" id="icon-gift"><path d="M64.0156 34.7272H14.031C12.2766 34.7272 10.8494 33.3091 10.8494 31.5656V22.0936C10.8494 20.3501 12.2766 18.9314 14.031 18.9314H64.0149C65.7687 18.9314 67.1953 20.3501 67.1953 22.0936V31.5662C67.1959 33.3091 65.7693 34.7272 64.0156 34.7272ZM14.031 21.3545C13.6276 21.3545 13.2869 21.6932 13.2869 22.0936V31.5662C13.2869 31.9733 13.6208 32.3047 14.031 32.3047H64.0149C64.4244 32.3047 64.7578 31.9733 64.7578 31.5662V22.0936C64.7578 21.6926 64.4171 21.3545 64.0149 21.3545H14.031Z" fill="white"></path><path d="M57.0447 67.1768H20.999C17.6218 67.1768 14.8741 64.4459 14.8741 61.0881V33.5158C14.8741 32.847 15.4201 32.3042 16.0929 32.3042C16.7656 32.3042 17.3116 32.847 17.3116 33.5158V61.0881C17.3116 63.1096 18.9661 64.7537 20.999 64.7537H57.0447C59.077 64.7537 60.7308 63.1096 60.7308 61.0881V33.5158C60.7308 32.847 61.2768 32.3042 61.9496 32.3042C62.6223 32.3042 63.1683 32.847 63.1683 33.5158V61.0881C63.1683 64.4459 60.4213 67.1768 57.0447 67.1768Z" fill="white"></path><path d="M39.0225 67.1768C38.3498 67.1768 37.8038 66.6346 37.8038 65.9652V33.5158C37.8038 32.847 38.3498 32.3042 39.0225 32.3042C39.6953 32.3042 40.2413 32.847 40.2413 33.5158V65.9646C40.2413 66.6346 39.6959 67.1768 39.0225 67.1768Z" fill="white"></path><path d="M23.8113 21.3503C19.9966 19.2955 18.5731 14.5389 20.6383 10.7461C22.7022 6.95506 27.4864 5.53934 31.303 7.59053C37.117 10.7212 40.2565 19.4554 40.3869 19.8256L38.0877 20.6294C38.0585 20.5471 35.1256 12.4047 30.1433 9.72168C27.5078 8.30535 24.2062 9.28309 22.7821 11.8995C21.3567 14.5183 22.339 17.8016 24.9734 19.2198L23.8113 21.3503Z" fill="white"></path><path d="M54.2313 21.3503L53.071 19.2192C54.3477 18.5316 55.2782 17.3921 55.6926 16.0103C56.1063 14.6279 55.9534 13.168 55.2617 11.9001C54.5719 10.6309 53.4263 9.70652 52.0363 9.29519C50.6457 8.88386 49.1783 9.03531 47.9023 9.72166C42.9201 12.4041 39.9871 20.5464 39.9579 20.6288L37.6587 19.8249C37.7891 19.4548 40.928 10.7206 46.7421 7.59051C48.5897 6.59581 50.7182 6.37652 52.7316 6.97261C54.7468 7.5681 56.4061 8.9087 57.4061 10.746C58.4073 12.5828 58.6285 14.6976 58.0289 16.7009C57.4287 18.7036 56.0801 20.3544 54.2313 21.3503Z" fill="white"></path><path d="M61.9496 50.9514H16.0929C15.4201 50.9514 14.8741 50.4089 14.8741 49.7404C14.8741 49.0719 15.4201 48.5293 16.0929 48.5293H61.9496C62.6223 48.5293 63.1683 49.0719 63.1683 49.7404C63.1683 50.4089 62.6229 50.9514 61.9496 50.9514Z" fill="white"></path></svg><svg viewBox="0 0 174 50" fill="none" id="logo-tablet"><g clip-path="url(#logo-tablet_0)"><path d="M51.2082 19.0509C49.734 15.4472 47.3597 12.3007 44.3221 9.92484C41.2845 7.54897 37.6896 6.02673 33.8957 5.50983C30.1017 4.99293 26.2413 5.49942 22.699 6.97882C19.1567 8.45823 16.0563 10.8589 13.7068 13.9415C11.3573 17.0242 9.84068 20.6812 9.30816 24.5481C8.77564 28.415 9.24578 32.3568 10.6717 35.9806C12.0977 39.6044 14.4296 42.7836 17.4352 45.2015C20.4408 47.6194 24.015 49.1915 27.8017 49.7611C27.3057 47.9377 26.8011 45.9223 26.3564 43.7848C27.6501 44.641 29.0118 45.3852 30.4271 46.0096C30.4271 46.0096 30.5298 47.8941 30.6666 49.9967C32.1959 50.0236 33.7237 49.8862 35.2247 49.5866C35.186 49.3674 35.186 49.1428 35.2247 48.9236C35.4727 47.2921 36.1569 44.3519 36.2937 42.4587C37.28 41.5176 38.1167 40.4256 38.7738 39.2219L38.7225 39.6058C38.2521 43.3224 37.2686 47.2921 36.67 48.3914C36.4762 48.7553 36.2377 49.0924 35.9602 49.3947C39.0558 48.6538 41.9564 47.235 44.461 45.2366C46.9656 43.2381 49.0141 40.7079 50.4647 37.8213C51.9152 34.9347 52.733 31.7607 52.8614 28.5196C52.9898 25.2784 52.4257 22.0475 51.2082 19.0509ZM49.9511 22.3575C49.5748 22.7326 48.7966 22.9856 48.6683 21.8514C48.54 20.7172 48.5058 19.9233 48.5058 19.9233C48.5058 19.9233 46.8553 16.9308 46.2396 16.8959C45.6238 16.861 41.2538 19.9233 40.0993 21.2582C39.0987 22.3836 38.9021 22.3051 38.9021 24.2856C38.9021 25.7775 39.0902 31.4135 38.9876 35.7234L32.0178 37.6166C29.8271 38.258 27.5993 38.7592 25.3473 39.1172L24.4921 34.0308H24.3724L22.1746 22.5407C22.1746 22.5407 18.9163 21.2843 17.719 20.9441C17.1569 20.6932 16.5361 20.6116 15.9299 20.709C15.3238 20.8064 14.7576 21.0787 14.2983 21.4937C13.8297 21.9123 13.4549 22.429 13.1996 23.0087C12.9443 23.5883 12.8144 24.2172 12.8188 24.8527C12.9996 25.2582 13.1372 25.6823 13.2293 26.1177C13.2721 26.5365 12.2031 26.4929 11.5189 26.4929C10.8348 26.4929 10.7322 25.2365 11.2709 23.7621C11.6912 22.6284 12.2122 21.5362 12.8274 20.4991C13.29 19.5728 13.8868 18.7228 14.5976 17.9778C14.5976 17.9778 14.7173 17.6811 15.6666 17.7684C16.6158 17.8556 21.8924 18.1435 21.8924 18.1435L21.9351 16.1631C27.6703 15.3552 33.4546 14.9645 39.2441 14.994C39.2441 15.5262 39.2441 16.0584 39.2441 16.5906C41.437 15.5696 43.7984 14.9777 46.2054 14.8457C46.3341 14.8423 46.4617 14.8717 46.5767 14.9311C46.6916 14.9905 46.7903 15.078 46.8638 15.1859C47.1546 15.5611 48.9249 17.8033 49.1301 18.1261C49.705 18.9642 50.2277 19.8384 50.6951 20.7434C50.5349 21.3165 50.2835 21.8588 49.9511 22.3487V22.3575Z" fill="#FDC305"></path><path d="M48.2839 17.0181C48.6859 17.5415 49.0365 18.0039 49.1391 18.1435C49.714 18.9817 50.2367 19.8558 50.7041 20.7609C50.5414 21.3151 50.2931 21.8393 49.9687 22.3138C49.5924 22.689 48.8142 22.942 48.6859 21.8078C48.5576 20.6736 48.5063 19.9233 48.5063 19.9233C48.5063 19.9233 46.8558 16.9308 46.24 16.8959C45.6243 16.861 41.2543 19.9233 40.0998 21.2582C39.0992 22.3836 38.9025 22.3051 38.9025 24.2856C38.9025 25.5942 39.0479 30.0874 39.0137 34.0832C40.5616 34.2577 42.8364 34.6939 43.5205 35.7234C43.5205 35.7234 43.2725 29.4592 50.1996 32.7396C50.1996 32.7396 50.439 24.1983 60 26.3882C56.7498 22.4952 52.7655 19.3086 48.2839 17.0181Z" fill="#F06351"></path><path d="M39.2788 14.994C39.3136 10.1595 38.9128 5.332 38.0815 0.572359C38.0815 0.572359 37.9533 -0.561827 37.3375 0.362971C36.8294 1.46856 36.4837 2.64443 36.3113 3.85277C32.6555 3.61347 28.986 3.71276 25.3478 4.14941C24.6465 1.75017 23.4493 0.659604 22.8763 0.947513C22.3033 1.23542 22.2349 3.80915 22.2349 3.80915L21.9527 16.1631C27.6936 15.3544 33.4836 14.9637 39.2788 14.994Z" fill="#F06351"></path><path d="M38.7821 39.2219C38.8933 38.2884 38.9531 37.0495 38.9874 35.6798L32.0179 37.573C29.8283 38.2291 27.6005 38.7449 25.3478 39.1172L26.297 43.4795C26.297 43.5755 26.297 43.6714 26.3569 43.7674C27.6505 44.6235 29.0121 45.3677 30.4273 45.9921C32.4957 44.9834 34.4656 43.777 36.3107 42.3889V42.4413C37.2925 41.5048 38.1262 40.4188 38.7821 39.2219Z" fill="#E55645"></path><path d="M27.366 12.2632C27.3233 12.176 28.2212 12.8565 28.5718 13.0659C28.9224 13.2752 29.0934 13.4323 29.0934 13.5806C29.0934 13.7289 28.8711 13.8772 28.5632 13.8772C28.2554 13.8772 27.7765 13.7725 27.7081 13.6504C27.6397 13.5282 28.2212 13.6504 28.5119 13.6504H28.7599C28.2334 13.2574 27.7642 12.7904 27.366 12.2632Z" fill="black"></path><path d="M33.7799 12.3592C33.7799 12.3592 32.9247 13.4759 32.8478 13.5283C32.7708 13.5806 32.7024 13.8249 33.0103 13.7813C33.3637 13.7274 33.7125 13.6458 34.0535 13.537C34.1476 13.4846 34.1134 13.3625 33.9509 13.3799C33.7884 13.3974 33.3694 13.4236 33.0958 13.4759L33.8227 12.3679C33.8227 12.3679 33.8483 12.2632 33.7799 12.3592Z" fill="black"></path><path d="M31.0946 17.6898C31.491 17.5117 31.8186 17.205 32.0267 16.8174C32.2661 16.2416 32.0267 16.0235 31.6504 15.9449C31.1328 15.8486 30.5986 15.9545 30.1539 16.2416C29.8204 16.5644 29.8632 16.8785 30.1539 17.114C30.4428 17.3451 30.7588 17.5386 31.0946 17.6898Z" fill="black"></path><path d="M30.7866 18.7891C30.6884 18.987 30.555 19.1645 30.3932 19.3126C30.1497 19.5125 29.8503 19.6286 29.5381 19.6441C29.0673 19.6913 28.5965 19.5541 28.2212 19.2603C28.0488 19.1574 27.8954 19.0245 27.7679 18.8677C27.6824 18.7726 27.5772 18.6981 27.4601 18.6495C27.4601 18.6495 28.1014 22.2353 29.6578 22.8111C31.2142 23.3869 31.5049 22.1481 31.5477 21.8165C31.5998 20.8236 31.3553 19.8379 30.8465 18.9898C30.8465 18.7281 30.8294 18.9026 30.7866 18.7891Z" fill="#F06351"></path><path d="M29.3328 19.7837C28.9326 19.725 28.5483 19.5842 28.2029 19.3698C27.8575 19.1554 27.5583 18.8718 27.3233 18.5361C27.3022 18.5121 27.2906 18.4811 27.2906 18.4489C27.2906 18.4167 27.3022 18.3856 27.3233 18.3616C27.3344 18.35 27.3477 18.3408 27.3624 18.3345C27.3771 18.3282 27.3928 18.325 27.4088 18.325C27.4247 18.325 27.4405 18.3282 27.4551 18.3345C27.4698 18.3408 27.4831 18.35 27.4943 18.3616C27.7059 18.6645 27.9744 18.9215 28.2841 19.1177C28.5939 19.3139 28.9387 19.4454 29.2986 19.5045C29.5834 19.4827 29.859 19.3922 30.1028 19.2406C30.3466 19.0889 30.5517 18.8804 30.7011 18.6321L30.8208 18.4663L30.9063 18.6583C30.9063 18.6583 31.2313 19.3213 31.7615 19.3562C32.2916 19.3911 32.6679 18.9898 33.1553 18.2308C33.1735 18.203 33.2017 18.1837 33.2338 18.1772C33.2659 18.1706 33.2992 18.1774 33.3264 18.1959C33.3536 18.2144 33.3725 18.2432 33.3789 18.2759C33.3853 18.3086 33.3787 18.3426 33.3606 18.3704C32.7905 19.2254 32.2517 19.6354 31.7444 19.6005C31.5482 19.574 31.3604 19.503 31.1947 19.3928C31.029 19.2826 30.8895 19.136 30.7866 18.9636C30.6193 19.202 30.402 19.3993 30.1505 19.5412C29.899 19.683 29.6197 19.7659 29.3328 19.7837Z" fill="black"></path><path d="M31.009 31.5269C32.78 31.5269 34.2158 30.0621 34.2158 28.2552C34.2158 26.4483 32.78 24.9835 31.009 24.9835C29.2379 24.9835 27.8022 26.4483 27.8022 28.2552C27.8022 30.0621 29.2379 31.5269 31.009 31.5269Z" fill="#FDC305"></path><path d="M35.259 25.5942L32.5824 26.7372L33.5658 21.8253L27.1522 30.3404L29.8288 29.1975L28.8454 34.1181L35.259 25.5942ZM28.9395 28.9357L32.4969 24.2158L31.8042 27.7056L33.5145 26.9902L29.9314 31.7188L30.6241 28.229L28.9395 28.9357Z" fill="#111111"></path><path d="M27.7422 27.6532C28.2712 27.6532 28.7 27.2157 28.7 26.6761C28.7 26.1364 28.2712 25.6989 27.7422 25.6989C27.2133 25.6989 26.7845 26.1364 26.7845 26.6761C26.7845 27.2157 27.2133 27.6532 27.7422 27.6532Z" fill="#111111"></path><path d="M33.3181 31.1954C33.6912 31.1954 33.9937 30.8868 33.9937 30.5061C33.9937 30.1255 33.6912 29.8169 33.3181 29.8169C32.945 29.8169 32.6425 30.1255 32.6425 30.5061C32.6425 30.8868 32.945 31.1954 33.3181 31.1954Z" fill="#111111"></path><path d="M34.1391 29.3022C34.3044 29.3022 34.4384 29.1654 34.4384 28.9968C34.4384 28.8282 34.3044 28.6914 34.1391 28.6914C33.9738 28.6914 33.8398 28.8282 33.8398 28.9968C33.8398 29.1654 33.9738 29.3022 34.1391 29.3022Z" fill="#111111"></path><path d="M39.236 16.5731C37.6923 17.9928 36.2384 19.511 34.8831 21.1186C33.5331 22.7145 32.0097 24.1487 30.3421 25.3936C30.1539 24.9312 28.9481 24.0675 28.9481 24.0675C28.9481 24.0675 26.2628 22.1917 24.5011 20.7172C23.5488 19.908 22.6516 19.0336 21.8158 18.0999L20.1055 18.0039C22.5744 21.6832 26.1915 24.4015 30.3677 25.7164C31.1032 25.5942 33.1727 24.0849 34.7206 22.8548C36.5519 21.2659 38.2669 19.5426 39.8518 17.6986C40.2778 17.1821 40.6081 16.5908 40.8267 15.9537C39.8518 16.2852 39.236 16.5731 39.236 16.5731Z" fill="#F06351"></path><path d="M22.175 22.5407C22.175 22.5407 18.9168 21.2843 17.7195 20.9441C17.1573 20.6932 16.5365 20.6116 15.9304 20.709C15.3243 20.8064 14.7581 21.0787 14.2987 21.4937C13.8301 21.9123 13.4554 22.429 13.2001 23.0087C12.9448 23.5883 12.8149 24.2172 12.8193 24.8527C13 25.2582 13.1377 25.6823 13.2298 26.1177C13.2725 26.5365 12.2035 26.4929 11.5194 26.4929C10.8352 26.4929 10.7326 25.2365 11.2714 23.7621C11.6917 22.6284 12.2127 21.5362 12.8278 20.4991C8.16705 22.9769 0 28.7002 0 28.7002C2.33611 28.5564 4.68014 28.6265 7.00399 28.9096C11.4937 29.372 11.2799 32.9839 11.2799 32.9839C12.8591 32.5398 14.4684 32.2161 16.0946 32.0155C17.9076 31.8933 18.0359 33.8651 18.0359 33.8651L18.4892 37.2327C19.1774 36.4731 19.9364 35.7835 20.7554 35.1738C21.8111 34.3116 23.1553 33.9046 24.5011 34.0396L22.175 22.5407Z" fill="#F06351"></path><path d="M74.2184 32.4708C73.3349 31.1952 72.9125 29.6692 73.0177 28.1337V21.8663C72.9063 20.3195 73.3223 18.7802 74.2013 17.4875C74.996 16.4903 76.3539 15.9945 78.275 16C80.1961 16.0056 81.4969 16.4429 82.1773 17.312C83.0069 18.389 83.4117 19.7206 83.3179 21.0641V22.5348H79.7673V20.9388C79.7625 20.5188 79.7253 20.0998 79.6558 19.6853C79.6129 19.3852 79.4715 19.1067 79.2527 18.8914C79.1177 18.7786 78.9609 18.6931 78.7916 18.64C78.6222 18.5869 78.4437 18.5673 78.2664 18.5822C78.0119 18.5452 77.7518 18.5855 77.5217 18.6977C77.2915 18.8098 77.1023 18.9883 76.98 19.209C76.7545 19.7958 76.6552 20.4216 76.6884 21.0474V29.0028C76.6493 29.6327 76.7639 30.2628 77.0229 30.8412C77.1466 31.0499 77.3302 31.2188 77.5512 31.3272C77.7721 31.4356 78.0207 31.4787 78.2664 31.4513C78.5079 31.4845 78.754 31.4427 78.9696 31.3316C79.1852 31.2206 79.3593 31.046 79.4671 30.8329C79.6746 30.2449 79.7648 29.6238 79.733 29.0028V27.3315H83.2836V28.7772C83.3881 30.1405 83.0164 31.4982 82.2287 32.6295C81.474 33.5487 80.1704 34 78.3179 34C76.4654 34 75.016 33.4986 74.2184 32.4708Z" fill="#111111"></path><path d="M88.1555 16.2424H92.2207L95.6513 33.7911H92.2722L91.6633 29.9137H88.8159L88.1298 33.766H84.6993L88.1555 16.2424ZM91.2859 27.7075L90.2053 20.6546L89.1332 27.7075H91.2859Z" fill="#111111"></path><path d="M98.2848 18.883H95.506V16.2424H104.7V18.883H101.955V33.766H98.2762L98.2848 18.883Z" fill="#111111"></path><path d="M111.913 16.2424H118.886V18.0641H114.426V23.8552H118.045V25.585H114.426V32.0111H118.929V33.766H111.913V16.2424Z" fill="#444444"></path><path d="M120.953 16.2424H122.669L127.814 27.883V16.2424H129.907V33.7911H128.303L123.157 21.8245V33.766H121.03L120.953 16.2424Z" fill="#444444"></path><path d="M132.678 16.2424H139.642V18.0641H135.182V23.8552H138.836V25.585H135.216V32.0111H139.693V33.766H132.678V16.2424Z" fill="#444444"></path><path d="M141.709 16.2424H145.328C146.754 16.1306 148.175 16.5188 149.333 17.3371C150.191 18.0641 150.611 19.2507 150.611 20.897C150.611 23.1254 149.871 24.4875 148.39 24.9833L150.963 33.766H148.527L146.169 25.5432H144.222V33.766H141.709V16.2424ZM145.14 23.7633C145.966 23.8411 146.792 23.6146 147.455 23.1282C147.725 22.8174 147.926 22.4561 148.047 22.0667C148.168 21.6772 148.206 21.2678 148.158 20.8635C148.176 20.2966 148.091 19.7311 147.91 19.1922C147.836 18.9936 147.722 18.8113 147.575 18.6563C147.427 18.5013 147.25 18.3766 147.052 18.2897C146.495 18.0672 145.895 17.9673 145.294 17.9973H144.188V23.7967L145.14 23.7633Z" fill="#444444"></path><path d="M153.991 32.4708C153.171 31.1225 152.791 29.5634 152.902 28V22.1504C152.872 21.0216 153.017 19.8949 153.33 18.8078C153.578 17.9906 154.105 17.2802 154.823 16.7939C155.69 16.2848 156.693 16.0403 157.704 16.092C158.358 16.0314 159.018 16.1107 159.637 16.3243C160.256 16.5379 160.82 16.8807 161.289 17.3287C162.112 18.4519 162.501 19.8223 162.387 21.1978V21.8496H160.029V21.3064C160.045 20.6568 159.993 20.0072 159.874 19.3677C159.796 18.9579 159.564 18.5913 159.222 18.3399C158.777 18.0839 158.263 17.9645 157.747 17.9973C157.187 17.9506 156.63 18.1184 156.195 18.4652C155.839 18.7941 155.607 19.2294 155.535 19.702C155.426 20.3903 155.377 21.0864 155.389 21.7828V28.2925C155.321 29.2817 155.494 30.2725 155.895 31.1839C156.128 31.4641 156.423 31.6888 156.758 31.8408C157.094 31.9928 157.461 32.068 157.831 32.0608C158.2 32.0535 158.564 31.9639 158.893 31.7989C159.222 31.6339 159.507 31.3978 159.728 31.1086C160.142 30.1448 160.321 29.1009 160.252 28.0585V26.8217H157.97V25.0919H162.516V33.766H160.963L160.715 31.7521C160.518 32.4212 160.095 33.0058 159.514 33.4109C158.933 33.816 158.229 34.0177 157.516 33.9833C156.845 34.0409 156.17 33.9325 155.554 33.668C154.938 33.4036 154.4 32.9918 153.991 32.4708Z" fill="#444444"></path><path d="M167.731 27.5822L163.846 16.2424H166.178L168.931 24.6992L171.642 16.2424H174L170.141 27.5822V33.766H167.739L167.731 27.5822Z" fill="#444444"></path></g><defs><clipPath id="logo-tablet_0"><rect width="174" height="50" fill="white"></rect></clipPath></defs></svg><svg viewBox="0 0 24 24" fill="none" id="menu-nav-mobile"><line y1="3" x2="24" y2="3" stroke="black" stroke-width="2"></line><line y1="11" x2="24" y2="11" stroke="black" stroke-width="2"></line><line y1="19" x2="24" y2="19" stroke="black" stroke-width="2"></line></svg><svg viewBox="0 0 20 20" fill="none" id="mobile-close-button"><line y1="-0.75" x2="24.7577" y2="-0.75" transform="matrix(0.686589 -0.727046 0.686589 0.727046 2.00171 20)" stroke="black" stroke-width="1.5"></line><line y1="-0.75" x2="24.7577" y2="-0.75" transform="matrix(0.686589 0.727046 -0.686589 0.727046 1 2)" stroke="black" stroke-width="1.5"></line></svg><svg viewBox="0 0 26 30" fill="none" id="process-food"><path fill-rule="evenodd" clip-rule="evenodd" d="M19.12.08a1 1 0 0 1 1.09.21c.9.91 2.1 2.88 3.06 5.92a42.6 42.6 0 0 1 1.73 12.79 1 1 0 0 1-1 1h-3.5v9a1 1 0 1 1-2 0v-28a1 1 0 0 1 .62-.92Zm1.38 17.92h2.5a39.62 39.62 0 0 0-1.64-11.19 22.4 22.4 0 0 0-.86-2.3v13.49Zm-14-18a1 1 0 0 1 1 1v28a1 1 0 1 1-2 0v-28a1 1 0 0 1 1-1Z" fill="#fff"></path><path fill-rule="evenodd" clip-rule="evenodd" d="M2 0a1 1 0 0 1 1 1v5.5c0 .56.2 1.32.7 1.92.48.56 1.31 1.08 2.8 1.08a1 1 0 1 1 0 2 5.41 5.41 0 0 1-4.33-1.8 5.07 5.07 0 0 1-1.17-3.2v-5.5a1 1 0 0 1 1-1Z" fill="#fff"></path><path fill-rule="evenodd" clip-rule="evenodd" d="M11 0a1 1 0 0 0-1 1v5.5c0 .56-.2 1.32-.7 1.92-.48.56-1.31 1.08-2.8 1.08a1 1 0 0 0 0 2 5.4 5.4 0 0 0 4.33-1.8 5.07 5.07 0 0 0 1.17-3.2v-5.5a1 1 0 0 0-1-1Z" fill="#fff"></path></svg><svg viewBox="0 0 25 28" fill="none" id="process-leaf"><path d="M24.84.77a.95.95 0 0 0-.9-.77h-.01c-4.94.03-16.95.92-21.8 8.38-2.51 3.88-2.73 8.91-.64 14.96l.07.13a25.93 25.93 0 0 0-1.04 3.32 1 1 0 0 0 .72 1.19l.2.02c.43 0 .81-.32.9-.79.03-.1 2.42-10.37 10.86-16.38.43-.3.55-.93.26-1.38a.9.9 0 0 0-1.3-.28c-4.79 3.4-7.74 8-9.47 11.65-1.24-4.57-.92-8.37.99-11.3 3.74-5.76 12.62-7.15 17.98-7.45-1.16 1.8-2.41 5.1-2.41 10.93 0 3.12-.83 5.52-2.47 7.14-2.62 2.6-6.88 2.83-10 2.58-.51-.04-.96.38-1 .93-.04.55.35 1.03.86 1.07.63.05 1.3.08 1.99.08 3.17 0 6.86-.66 9.42-3.2 2.04-2 3.07-4.9 3.07-8.6 0-9.1 3.22-11.1 3.23-11.1.4-.21.6-.68.5-1.13Z" fill="#fff"></path></svg><svg viewBox="0 0 27 29" fill="none" id="process-pure"><path d="M11.38 0c-1.64 0-2.9 1.36-2.9 3.08s1.26 3.08 2.9 3.08c1.63 0 2.9-1.36 2.9-3.08s-1.27-3.08-2.9-3.08Zm0 1.18c1 0 1.72.84 1.72 1.9 0 1-.8 1.9-1.72 1.9-1 0-1.73-.84-1.73-1.9 0-1 .78-1.9 1.72-1.9Zm-10.88 23.56c0 1.18.4 2.18 1.36 3 1 .84 2.17.77 2.17.77h19.04c.77 0 1.8-.38 2.62-1.45.85-1 .8-2.36.8-2.36v-17.21c0-.44-.12-.6-.75-.6-.64 0-.69.27-.69.59v17.22c-.02.3-.07 1.08-.74 1.72-.74.62-1.45.54-1.45.54s-18.13 0-19.03-.03a2.14 2.14 0 0 1-1.45-.9c-.51-.73-.41-1.63-.41-1.63v-17.22c0-.46-.24-.64-.73-.64s-.74.18-.74.58v17.62Zm16.31-16.31c-1.08.23-2.17.38-4.26 2.35-2.08 2-3.62 1.9-5.16 1.82-1.54-.1-3.17-1.54-3.45-1.9-.33-.36-.9-.12-1.08.11-.16.24-.16.64.1 1 1.27 1.18 2.45 2.08 4.72 2.26a7.5 7.5 0 0 0 5.89-2.26c1.45-1.45 2.17-1.72 3.26-1.9a6.3 6.3 0 0 1 5.08 1.26c1 1.1 1.26.78 1.54.48.54-.72-.23-1.27-1.1-1.9a7.24 7.24 0 0 0-5.52-1.28l-.02-.04Zm-9.06 7.16c-1.18 0-2.08 1-2.08 2.26 0 1.27.9 2.27 2.08 2.27 1.18 0 2.08-1 2.08-2.27s-.9-2.26-2.08-2.26Zm11.78.78c-1.54 0-2.8 1.36-2.8 2.99 0 1.63 1.26 2.99 2.8 2.99 1.54 0 2.81-1.36 2.81-3 0-1.62-1.27-2.98-2.8-2.98Zm0 1.45c.8 0 1.45.7 1.45 1.54a1.5 1.5 0 0 1-1.45 1.54c-.8 0-1.45-.7-1.45-1.54 0-.86.65-1.54 1.45-1.54Z" fill="#fff"></path></svg><svg viewBox="0 0 27 31" fill="none" id="process-result"><path d="M6.12 0c-1.07 0-1.07 1.58 0 1.58h6.67v1.6a13.21 13.21 0 0 0-12.23 13.3c0 4.02 1.75 7.64 4.52 10.07.48.43.54 1.18.1 1.64l-1.53 1.55c-.75.69.36 1.75 1.03 1l2-2.03c.36-.34.88-.43 1.32-.21a12.79 12.79 0 0 0 11.1.06c.43-.21.96-.13 1.3.21l1.95 1.97c.68.64 1.66-.31 1.04-1l-1.45-1.48c-.45-.45-.38-1.2.1-1.63a13.47 13.47 0 0 0 4.62-10.16 13.2 13.2 0 0 0-12.27-13.28v-1.6h6.67c1.06 0 1.06-1.59 0-1.59h-14.94Zm-4.12 16.47c0-6.53 5.2-11.82 11.6-11.82 6.41 0 11.6 5.3 11.6 11.82 0 6.55-5.19 11.85-11.6 11.85-6.4 0-11.6-5.3-11.6-11.85Zm10.8-8.09c0-1.1 1.66-1.1 1.66 0v8.63c0 .23-.09.44-.25.6a.86.86 0 0 1-.6.25.82.82 0 0 1-.57-.23.8.8 0 0 1-.24-.56v-8.69Zm-5 2.62c.31 0 .61-.12.83-.34a1.14 1.14 0 0 0-.82-1.96c-.3.02-.56.16-.75.37a1.14 1.14 0 0 0 .75 1.92Zm11.6 0c.31 0 .6-.12.82-.34a1.14 1.14 0 0 0-.82-1.96 1.14 1.14 0 0 0 0 2.29Zm-10.43 12.59c0 1.53-2.33 1.53-2.33 0s2.33-1.53 2.33 0Zm4.64 3.44a1.18 1.18 0 0 0 1.17-.68 1.14 1.14 0 0 0-.7-1.56 1.17 1.17 0 0 0-1.22.32 1.14 1.14 0 0 0 .75 1.92Zm-8.12-10.39a1.14 1.14 0 0 1-.69 1.17 1.17 1.17 0 0 1-1.57-.7 1.14 1.14 0 0 1 .32-1.2 1.17 1.17 0 0 1 1.94.73Zm17.39 1.15a1.17 1.17 0 0 0 1.17-.68 1.14 1.14 0 0 0-.7-1.55 1.17 1.17 0 0 0-1.22.32 1.14 1.14 0 0 0 .75 1.91Zm-2.32 5.8c0 1.53-2.32 1.53-2.32 0s2.32-1.53 2.32 0Z" fill="#fff"></path></svg><svg viewBox="0 0 67 28" fill="none" id="program-cat-pro"><path d="M60.5591 2.87843C61.1364 1.95997 61.9036 1.17573 62.8091 0.578427C63.3091 0.228427 63.6091 0.228427 63.9091 0.878427C64.3091 1.82843 64.6591 2.82843 64.3591 3.87843C64.3045 4.05651 64.2942 4.24523 64.3291 4.4282C64.3639 4.61117 64.4429 4.78288 64.5591 4.92843C64.8591 5.32843 65.1091 5.72843 65.3591 6.07843C65.6994 6.51031 65.9201 7.02408 65.9991 7.5682C66.078 8.11231 66.0125 8.66763 65.8091 9.17843C65.6256 9.67433 65.5908 10.213 65.7091 10.7284C65.809 11.2234 65.809 11.7334 65.7091 12.2284C65.6687 12.5991 65.5187 12.9494 65.2782 13.2344C65.0377 13.5194 64.7177 13.7262 64.3591 13.8284C63.7196 13.9501 63.1488 14.3069 62.7591 14.8284C62.7119 14.9052 62.6457 14.9686 62.5669 15.0124C62.488 15.0562 62.3993 15.0789 62.3091 15.0784C61.7091 15.1784 60.2091 13.8284 60.2091 13.2284V12.9284C60.2591 11.1284 60.1591 10.9784 58.5091 10.2284C58.1638 10.1066 57.8544 9.90037 57.6091 9.62843C57.3091 9.22843 56.9091 9.27843 56.4591 9.42843C56.0091 9.57843 55.7591 9.87843 55.8091 10.3784C55.9599 11.5889 56.0101 12.8097 55.9591 14.0284C55.9624 14.1675 55.9966 14.3041 56.0591 14.4284C57.6091 16.6784 58.2091 19.3284 58.9591 21.8784C59.5591 23.8284 60.6591 24.8784 62.6591 25.0284C62.9792 25.054 63.2968 25.1041 63.6091 25.1784C64.02 25.2444 64.4017 25.4322 64.7048 25.7174C65.0078 26.0027 65.2183 26.3723 65.3091 26.7784C65.6591 27.8284 65.4591 28.0784 64.4091 28.0784H61.1591C60.7384 28.0997 60.3259 27.9562 60.0091 27.6784C59.5031 27.2514 58.9282 26.9132 58.3091 26.6784C57.6247 26.4258 57.0323 25.9728 56.6091 25.3784C56.0234 24.5602 55.3531 23.806 54.6091 23.1284C53.2091 21.6784 51.7091 20.2784 50.4091 18.7784C49.4195 17.7563 48.8486 16.4006 48.8091 14.9784C48.8091 14.5284 48.7091 14.3284 48.2091 14.5284C48.0594 14.6234 47.8864 14.6753 47.7091 14.6784C46.3091 14.6784 45.6091 15.5284 45.1091 16.7784C44.6591 17.8284 44.0591 18.8284 43.5091 19.8784C43.1972 20.5357 43.0269 21.2511 43.0091 21.9784C43.0091 23.1784 43.3091 23.5784 44.4091 23.9784C45.1091 24.2284 45.7591 24.4784 46.1091 25.1784C46.5091 25.9784 46.4091 26.1784 45.5591 26.2284H42.1591C41.9631 26.2478 41.7659 26.2052 41.5955 26.1065C41.425 26.0078 41.2899 25.8581 41.2091 25.6784L40.3091 24.1784C40.0438 23.7871 39.874 23.3389 39.8132 22.87C39.7524 22.4011 39.8024 21.9245 39.9591 21.4784C40.1755 20.6102 40.1926 19.7042 40.0091 18.8284C39.8831 18.2185 39.8939 17.5882 40.0409 16.9829C40.1879 16.3777 40.4674 15.8126 40.8591 15.3284C41.1591 14.9784 41.1591 14.8284 40.6591 14.7284C38.6146 14.2941 36.6325 13.6054 34.7591 12.6784C34.7459 12.6784 34.7331 12.6732 34.7238 12.6638C34.7144 12.6544 34.7091 12.6417 34.7091 12.6284C33.1091 12.0284 32.8091 12.1284 32.3591 13.7784C31.9591 15.1784 31.5591 16.5784 31.2591 18.0284C30.9091 19.6284 31.3091 21.1284 31.8091 22.6284C32.0091 23.2284 32.6091 23.1784 33.0591 23.3284C34.0591 23.6284 34.9091 24.0284 35.3091 25.0784C35.6591 25.8784 35.6091 25.9784 34.7591 25.9784C33.9091 25.9784 33.0591 25.9284 32.1591 25.9784C31.3997 25.9922 30.6584 25.7451 30.0591 25.2784C27.6591 23.6784 26.9591 21.2284 26.7591 18.5784C26.6591 16.9284 25.7591 15.6284 24.7091 14.3784C24.5091 14.1284 24.3091 14.0284 24.0091 14.2284C22.9359 14.8202 21.8153 15.3219 20.6591 15.7284C18.2462 16.5804 16.1289 18.1077 14.5591 20.1284C13.9729 20.8659 13.5933 21.746 13.4591 22.6784C13.3091 23.5784 13.5591 23.9784 14.4591 24.2284C15.3591 24.4784 15.8091 24.9784 15.9091 25.9284C15.9591 26.3284 15.8091 26.5284 15.4091 26.5284H11.3591C11.2266 26.519 11.0982 26.4778 10.9851 26.4081C10.8719 26.3385 10.7772 26.2425 10.7091 26.1284C10.081 25.3508 9.74494 24.3779 9.75912 23.3784C9.73288 21.6509 9.88366 19.9252 10.2091 18.2284C10.2759 17.7203 10.4656 17.2361 10.7618 16.8178C11.0581 16.3996 11.4519 16.06 11.9091 15.8284C14.8591 14.4284 16.4091 11.7784 17.8091 9.02843C18.1091 8.47843 17.8591 8.37843 17.3591 8.42843C15.9598 8.62269 14.634 9.17368 13.5091 10.0284C12.0362 11.1029 10.6487 12.2897 9.35912 13.5784C7.98394 14.9753 6.16046 15.8427 4.20911 16.0284C0.559114 16.2284 -1.14089 14.1784 -0.990885 10.8784C-0.957354 9.75323 -0.533061 8.67482 0.209115 7.82843C0.467126 7.49393 0.818981 7.24392 1.21975 7.11033C1.62052 6.97674 2.05201 6.96563 2.45912 7.07843C3.20912 7.27843 3.40911 7.67843 3.10911 8.42843C2.95911 8.72843 2.75911 8.97843 2.60911 9.27843C2.39341 9.58491 2.22488 9.92198 2.10911 10.2784C1.55911 11.7784 2.30911 12.8284 3.85911 12.9784C5.50911 13.1284 6.85912 12.4284 8.10912 11.4284C9.61508 10.2226 10.9595 8.82775 12.1091 7.27843C12.9687 6.14713 14.0512 5.20407 15.2895 4.50749C16.5279 3.81091 17.8959 3.37559 19.3091 3.22843C20.4591 3.07843 21.4591 2.57843 22.5591 2.27843C24.6164 1.65123 26.7586 1.34761 28.9091 1.37843C29.9052 1.41991 30.8974 1.23172 31.8091 0.828427C34.2591 -0.171573 36.8091 -0.171573 39.3591 0.328427C41.3591 0.728427 43.3591 1.22843 45.3091 1.72843C46.4696 1.94467 47.6629 1.91057 48.8091 1.62843C51.0034 1.07219 53.248 0.737189 55.5091 0.628427C56.9904 0.55636 58.4667 0.848196 59.8091 1.47843C60.8091 1.92843 60.8091 1.92843 60.5591 2.87843Z" fill="black"></path></svg><svg viewBox="0 0 36 50" fill="none" id="program-cat-slim"><path d="M28.2034 0H28.008C27.6778 0.187081 27.415 0.473924 27.2571 0.819588C26.968 1.37738 26.7453 1.96735 26.5937 2.57732C26.5612 2.76073 26.4688 2.92811 26.331 3.05315C26.1932 3.17818 26.0179 3.25377 25.8326 3.26804C25.2658 3.36597 24.7288 3.59243 24.2626 3.93012C23.7965 4.26781 23.4135 4.7078 23.1429 5.21649C22.7708 5.87697 22.4526 6.5665 22.1914 7.27835C21.4611 9.17526 20.9006 11.134 20.2114 13.0464C19.8874 13.9175 19.872 13.9175 18.8949 13.9175C17.7274 13.9175 17.8097 13.7371 17.7943 15.0258C17.7943 15.433 17.9177 15.6392 18.3497 15.6186C18.4834 15.6186 18.684 15.5515 18.7354 15.7268C18.7869 15.9021 18.612 15.9794 18.5091 16.0825C17.8994 16.7029 17.1276 17.1388 16.2823 17.3402C15.3051 17.6031 14.3074 17.8093 13.356 18.1289C10.9131 18.9485 8.65543 20.0928 6.89657 22.0309C5.86814 23.2347 5.04455 24.6001 4.45886 26.0722C2.57143 30.5258 1.656 35.2165 0.946286 39.9536C0.612 42.1753 0.375429 44.4072 0.195429 46.6546C0.102857 47.7577 0 48.8763 0 50H17.1411C17.1696 49.7731 17.1283 49.5429 17.0229 49.3402C16.858 48.9289 16.5901 48.5672 16.2451 48.29C15.9 48.0128 15.4895 47.8295 15.0531 47.7577C14.6931 47.6753 14.652 47.567 14.8731 47.2835C15.2338 46.801 15.5103 46.2607 15.6909 45.6856C16.5291 43.2062 16.8531 40.6186 17.2594 38.0567C17.4889 36.0999 18.0894 34.2051 19.0286 32.4742C19.7611 31.2002 20.7382 30.0842 21.9034 29.1907C22.3303 28.866 22.3457 28.866 22.4177 29.4175C22.4691 29.7835 22.4794 30.1598 22.5051 30.5309C22.6595 32.9662 22.6285 35.4097 22.4126 37.8402C22.2184 39.7242 22.1926 41.6217 22.3354 43.5103C22.5399 45.7029 22.9304 47.8739 23.5029 50H30.3429C30.2536 49.442 29.9973 48.9243 29.6078 48.5156C29.2184 48.1069 28.7143 47.8264 28.1623 47.7113C27.5177 47.6087 26.8587 47.6438 26.2286 47.8144C25.92 47.8866 25.7914 47.8144 25.7657 47.4794C25.5529 44.7505 25.7261 42.0051 26.28 39.3247C26.966 36.2304 27.4912 33.1025 27.8537 29.9536C27.9887 28.6819 28.3881 27.4528 29.0263 26.3454C29.6383 25.2526 30.1731 24.1186 30.7749 23.0206C31.0138 22.6214 31.1575 22.1723 31.195 21.7083C31.2325 21.2443 31.1626 20.7779 30.9909 20.3454C30.852 19.9794 30.7183 19.6082 30.5486 19.2577C30.0343 18.2526 29.52 17.2577 29.0469 16.2423C28.7949 15.7268 28.8514 15.6649 29.412 15.6495C30.2503 15.6495 30.2503 15.6495 30.2657 14.8041C30.2657 14.6907 30.2657 14.5773 30.2657 14.4639C30.2657 14.1082 30.132 13.9124 29.7514 13.9485C29.4943 13.9485 29.2371 13.9485 28.9697 13.9485C28.6149 13.9485 28.512 13.799 28.5994 13.433C28.7729 12.838 29.1142 12.306 29.5823 11.9009C30.0503 11.4958 30.6252 11.2349 31.2377 11.1495C32.3772 11.0505 33.5251 11.1252 34.6423 11.3711C34.7712 11.4118 34.9109 11.4001 35.0312 11.3383C35.1515 11.2766 35.2427 11.1699 35.2851 11.0412C35.4909 10.5258 35.7171 10.0103 35.9486 9.49484C36.001 9.40339 36.0242 9.29801 36.015 9.19293C36.0058 9.08785 35.9647 8.98812 35.8971 8.90722C34.2514 6.81443 32.4669 4.86082 30.0343 3.60825C29.9168 3.55754 29.8138 3.47814 29.7347 3.3773C29.6557 3.27646 29.6031 3.15738 29.5817 3.03093C29.444 2.29408 29.225 1.57487 28.9286 0.886598C28.7895 0.519904 28.5349 0.20865 28.2034 0V0Z" fill="black"></path></svg><svg viewBox="0 0 24 18" fill="none" id="slider-arrows"><path d="m8 0-8 9 8 9v-18Zm16 9-8-9v18l8-9Z" fill="currentColor"></path></svg><svg viewBox="0 0 28 22" fill="none" id="telegram"><path fill-rule="evenodd" clip-rule="evenodd" d="M23.46 3.15c.18.15.27.38.23.61l-2.63 15.76a.66.66 0 0 1-1.01.44l-7.88-5.25a.66.66 0 0 1-.15-.96l2.61-3.26-4.36 2.9a.66.66 0 0 1-.65.05l-5.26-2.63a.66.66 0 0 1 .08-1.2l18.38-6.57a.66.66 0 0 1 .64.11Zm-17.13 7.17 3.53 1.77 7.56-5.04a.66.66 0 0 1 .88.96l-4.8 6 6.43 4.3 2.28-13.66-15.88 5.67Z" fill="currentColor"></path></svg><svg viewBox="0 0 28 22" fill="none" id="vkontakte"><path d="M1 5.34c0-.86.52-1.32 1.55-1.38l3.97.02c.26 0 .44.13.53.38.4 1.26.86 2.34 1.37 3.25.5.92 1.17 1.97 1.99 3.16.07.15.18.23.34.23.13 0 .22-.06.3-.18l.07-.28.03-4.35c0-.3-.07-.5-.23-.6-.15-.1-.43-.18-.83-.23-.32-.05-.48-.23-.48-.55 0-.07 0-.12.02-.15.38-1.09 1.44-1.63 3.2-1.63l1.5-.03c.67 0 1.23.16 1.67.48.44.32.67.82.67 1.5v5.72c.12.08.24.12.34.12.27 0 .5-.15.7-.45 1.95-2.58 3-4.31 3.17-5.18a.3.3 0 0 1 .05-.13c.12-.25.33-.47.61-.65.29-.19.53-.31.75-.38a.55.55 0 0 1 .24-.05h4.13l.26.03c.36 0 .63.16.83.47.07.1.12.21.15.33a2.4 2.4 0 0 1 .06.55v.18a6.11 6.11 0 0 1-.94 2.2 23.4 23.4 0 0 1-1.93 2.53c-.79.9-1.27 1.5-1.47 1.78a.93.93 0 0 0-.24.56c0 .13.07.28.21.45l3.9 4.63c.2.26.31.56.31.88 0 .38-.16.7-.48.95-.32.25-.7.4-1.14.43l-.46.02h-4.04c-.02 0-.06 0-.11.02a.86.86 0 0 1-.1.01c-.4 0-.76-.16-1.1-.48-.12-.13-.96-1.12-2.5-2.97a1.39 1.39 0 0 0-.38-.32 38.47 38.47 0 0 0-.53 2.24l-.08.42a1.4 1.4 0 0 1-1.12 1.06l-.37.02h-2.61c-1.48 0-2.95-.63-4.41-1.9a19.3 19.3 0 0 1-3.96-4.95 47.51 47.51 0 0 1-3.28-7.05 1.92 1.92 0 0 1-.13-.73Zm16.01 6.51c-.37 0-.7-.1-1.01-.29a.9.9 0 0 1-.45-.79v-5.78c0-.34-.1-.58-.27-.72-.18-.14-.49-.21-.93-.21l-1.52.05c-.76 0-1.34.12-1.73.37.78.36 1.17.93 1.17 1.71v4.43a1.5 1.5 0 0 1-.53 1.04 1.6 1.6 0 0 1-1.07.42c-.53 0-.94-.24-1.22-.73a26.16 26.16 0 0 1-3.1-5.63l-.23-.66-3.55-.02c-.23 0-.36.01-.38.03-.03.03-.04.1-.04.22 0 .15.01.3.05.48l.56 1.4c1.49 3.64 3.11 6.51 4.86 8.6 1.75 2.1 3.47 3.15 5.16 3.15h2.66c.1 0 .19-.03.24-.09.05-.06.1-.17.13-.34l.06-.25.5-2.21c.15-.3.27-.5.38-.6.2-.2.42-.28.69-.28.43 0 .86.24 1.3.73l2.27 2.71c.14.22.3.33.45.33h4.4c.53 0 .8-.13.8-.38a.47.47 0 0 0-.08-.25l-3.87-4.55c-.3-.35-.45-.73-.45-1.13 0-.4.14-.8.43-1.16.23-.34.68-.9 1.34-1.67.67-.78 1.25-1.51 1.75-2.19.5-.68.82-1.3.98-1.85l.08-.33a.37.37 0 0 1-.02-.16.54.54 0 0 0-.03-.19h-4.18c-.27.1-.48.25-.64.45l-.16.48c-.45 1.16-1.6 2.94-3.5 5.36-.36.33-.8.5-1.3.5Z" fill="currentColor"></path></svg><svg viewBox="0 0 28 22" fill="none" id="youtube"><path d="m17.85 10.8-5.24-3.5a.65.65 0 0 0-1.01.55v6.98a.65.65 0 0 0 1.01.54l5.24-3.49a.65.65 0 0 0 0-1.09Zm-4.94 2.8v-4.53l3.4 2.27-3.4 2.27Zm12.48-8.56a2.4 2.4 0 0 0-1.45-1.63c-3.72-1.43-9.69-1.41-9.94-1.41s-6.22-.02-9.94 1.4a2.4 2.4 0 0 0-1.45 1.64 25.32 25.32 0 0 0-.61 6.3c0 3.26.33 5.22.61 6.3a2.4 2.4 0 0 0 1.45 1.63c3.72 1.43 9.69 1.4 9.94 1.4h.08c.75 0 6.31-.04 9.86-1.4a2.4 2.4 0 0 0 1.45-1.64c.28-1.07.61-3.03.61-6.3 0-3.25-.33-5.22-.61-6.29Zm-1.27 12.27a1.1 1.1 0 0 1-.65.74c-3.5 1.34-9.4 1.32-9.47 1.32-.07 0-5.98.02-9.47-1.32a1.09 1.09 0 0 1-.65-.74c-.27-1-.57-2.85-.57-5.97 0-3.12.3-4.97.57-5.97a1.1 1.1 0 0 1 .65-.74c3.5-1.34 9.4-1.32 9.47-1.32.07 0 5.98-.02 9.47 1.32a1.1 1.1 0 0 1 .65.74c.27 1 .57 2.85.57 5.97 0 3.12-.3 4.96-.57 5.97Z" fill="currentColor"></path></svg></svg>