<svg xmlns="http://www.w3.org/2000/svg"><style>:root svg:not(:target){display:none}</style><svg viewBox="0 0 27 35" fill="none" id="html-academy"><path d="M13.6426 0.515754L13.5 0.5L0 1.90733V26.5129L13.5 34.5L27 26.5129V1.90733L13.6426 0.515754ZM25.2344 25.5151L13.5 32.4573L1.76561 25.5151V15.4293L13.4507 22.3451L13.4701 23.5984L5.45351 18.8548L5.44295 20.0801L13.4894 24.8885L13.5088 26.175L5.46408 21.4174L5.45351 22.6427L13.5 27.4511L21.6239 22.6182V21.3929V17.409L25.2432 15.2595L25.2344 25.5151ZM25.2344 13.9519L22.0147 15.8319L20.5325 16.7071L13.4666 12.5201L13.456 13.7454L19.4957 17.318L19.4429 17.3495L19.3126 17.4247L18.4536 17.9166L13.4666 14.9689L13.456 16.1942L17.3921 18.5222L16.4591 19.1314L16.438 19.1436L13.4666 17.402L13.456 18.6273L15.4029 19.7615L13.4155 20.9483L1.7973 14.0762L13.4349 7.11831L25.2344 13.9519ZM25.2344 12.7266L13.4401 5.81075L1.76561 12.7196V3.4897L13.5 2.26442L25.2344 3.4897V12.7266Z" fill="#666666"></path></svg><svg viewBox="0 0 33 38" fill="none" id="logo-mobile"><g clip-path="url(#logo-mobile_0)"><path d="M6.0117 20.9349V18.6514C12.6311 17.7242 19.3065 17.2752 25.988 17.3076C25.988 17.9139 25.988 18.5302 25.9286 19.1465C27.8277 18.2867 29.8236 17.6691 31.8709 17.3076C30.5661 13.8643 28.1884 10.9536 25.1037 9.02347C22.0189 7.09332 18.398 6.25055 14.7979 6.62482C11.1978 6.9991 7.81798 8.56967 5.17831 11.095C2.53863 13.6202 0.785353 16.9603 0.188175 20.6014L6.0117 20.9349Z" fill="#FDC305"></path><path d="M26.9784 24.4813C25.8295 25.7745 25.6017 25.6937 25.6017 27.967C25.6017 28.8865 25.6017 32.9178 25.6017 37.2422C27.8723 35.7125 29.7362 33.6331 31.0271 31.1895C32.3181 28.746 32.9959 26.0143 33 23.2385C32.9869 22.1869 32.8809 21.1385 32.6831 20.1064C30.6312 21.3486 28.7183 22.8156 26.9784 24.4813Z" fill="#FDC305"></path><path d="M6.29892 25.9867C6.29892 25.9867 2.54532 24.5318 1.15876 24.1377C0.779508 24.0158 0.392293 23.9212 0 23.8548C0.107354 26.7707 0.956315 29.608 2.4635 32.0879C3.97068 34.5679 6.08426 36.6053 8.59664 38L6.29892 25.9867Z" fill="#FDC305"></path><path d="M26.0375 17.2975C26.0778 11.7189 25.6136 6.1484 24.651 0.656758C24.651 0.656758 24.5123 -0.646619 23.7695 0.414269C23.1861 1.67535 22.7857 3.01637 22.581 4.39513C18.3638 4.11805 14.1305 4.23303 9.93367 4.73865C9.15126 2.02076 7.77461 0.757795 7.11104 1.01039C6.44748 1.26298 6.39796 4.35471 6.39796 4.35471L6.07113 18.6009C12.6882 17.6876 19.3603 17.252 26.0375 17.2975Z" fill="#F06351"></path><path d="M12.2908 14.1452C12.2908 14.0542 13.2812 14.8322 13.6873 15.0747C14.0933 15.3172 14.2914 15.4991 14.2914 15.6708C14.2914 15.8426 14.024 16.0144 13.6675 16.0144C13.3109 16.0144 12.7662 15.8931 12.6771 15.7416H13.608H13.8953C13.2918 15.2863 12.7521 14.7492 12.2908 14.1452Z" fill="black"></path><path d="M19.699 14.2563L18.6194 15.6001C18.6194 15.6607 18.4511 15.9537 18.7977 15.9032C19.2079 15.8408 19.6122 15.7428 20.006 15.6102C20.1149 15.6102 20.0753 15.4182 19.8971 15.4384C19.7188 15.4587 19.2137 15.489 18.9067 15.5496L19.7386 14.2765C19.7386 14.2765 19.8079 14.1452 19.699 14.2563Z" fill="black"></path><path d="M16.5891 20.4095C17.0482 20.2031 17.4277 19.848 17.6687 19.3991C17.946 18.7424 17.6687 18.4797 17.2329 18.3887C16.6366 18.2777 16.0211 18.4004 15.5096 18.7323C15.1233 19.096 15.1729 19.4597 15.4601 19.7426C15.808 20.0116 16.1872 20.2356 16.5891 20.4095Z" fill="black"></path><path d="M16.193 21.6724C16.082 21.9033 15.9271 22.1094 15.7374 22.2786C15.4553 22.5102 15.1086 22.6446 14.747 22.6626C14.2259 22.705 13.7077 22.5504 13.2911 22.2281C13.0953 22.1077 12.9183 21.9578 12.7662 21.7836C12.6667 21.6715 12.5452 21.582 12.4097 21.5209C12.4097 21.5209 13.1525 25.6634 14.955 26.3201C16.7575 26.9769 17.0744 25.5623 17.1339 25.1784C17.1934 24.0318 16.9102 22.8937 16.3217 21.9149C16.3019 21.6017 16.292 21.8038 16.193 21.6724Z" fill="#F06351"></path><path d="M14.5687 22.8242C14.1085 22.7583 13.6664 22.597 13.2695 22.3503C12.8727 22.1035 12.5295 21.7766 12.2611 21.3895C12.2479 21.3764 12.2375 21.3606 12.2303 21.3433C12.2232 21.3259 12.2195 21.3073 12.2195 21.2885C12.2195 21.2697 12.2232 21.251 12.2303 21.2337C12.2375 21.2163 12.2479 21.2006 12.2611 21.1874C12.274 21.174 12.2894 21.1633 12.3064 21.156C12.3234 21.1487 12.3417 21.145 12.3601 21.145C12.3786 21.145 12.3969 21.1487 12.4139 21.156C12.4309 21.1633 12.4463 21.174 12.4592 21.1874C12.9591 21.8889 13.71 22.3608 14.5489 22.5009C14.8774 22.4757 15.1952 22.3709 15.476 22.1952C15.7568 22.0194 15.9924 21.7779 16.1633 21.4906L16.3019 21.2986L16.401 21.5108C16.401 21.5108 16.7674 22.2786 17.3914 22.3191C18.0153 22.3595 18.4313 21.9048 18.9859 21.0258C18.9988 21.0123 19.0142 21.0017 19.0312 20.9944C19.0482 20.9871 19.0665 20.9833 19.0849 20.9833C19.1034 20.9833 19.1216 20.9871 19.1386 20.9944C19.1557 21.0017 19.1711 21.0123 19.184 21.0258C19.216 21.0466 19.2389 21.0792 19.2482 21.1168C19.2574 21.1544 19.2521 21.1941 19.2335 21.2279C18.5996 22.2382 17.9757 22.6828 17.3715 22.6424C17.1418 22.6083 16.9226 22.5215 16.7304 22.3885C16.5383 22.2555 16.3782 22.0797 16.2623 21.8745C16.0675 22.1518 15.8142 22.3811 15.5212 22.5455C15.2281 22.7098 14.9026 22.8051 14.5687 22.8242Z" fill="black"></path><path d="M25.988 19.1162C24.2097 20.7567 22.5327 22.508 20.9667 24.36C19.4104 26.2051 17.6526 27.8627 15.7275 29.3007C15.5096 28.7652 14.1231 27.7751 14.1231 27.7751C14.1231 27.7751 11.0231 25.6129 8.9928 23.9154C7.89756 22.9731 6.86216 21.9607 5.89286 20.8843L3.91207 20.7732C6.77449 25.0224 10.9639 28.1565 15.7968 29.6645C16.6486 29.523 19.0354 27.7852 20.8181 26.3706C22.9167 24.5337 24.8827 22.5448 26.7011 20.4196C27.1988 19.8245 27.5818 19.1389 27.8301 18.3988C26.7407 18.7929 25.988 19.1162 25.988 19.1162Z" fill="#F06351"></path></g><defs><clipPath id="logo-mobile_0"><rect width="33" height="38" fill="white"></rect></clipPath></defs></svg><svg viewBox="0 0 70 59" fill="none" id="logo-pic"><path d="M59.7434 23.8063C58.0235 19.7092 55.2535 16.1318 51.7097 13.4305C48.1658 10.7293 43.9717 8.99857 39.5455 8.41088C35.1192 7.82319 30.6153 8.39905 26.4827 10.0811C22.35 11.7631 18.7329 14.4925 15.9918 17.9973C13.2507 21.5021 11.4814 25.6599 10.8601 30.0564C10.2388 34.4529 10.7873 38.9344 12.4509 43.0545C14.1145 47.1745 16.8351 50.7892 20.3416 53.5382C23.8482 56.2872 28.0181 58.0746 32.4359 58.7223C31.8572 56.6491 31.2685 54.3578 30.7497 51.9275C32.259 52.9009 33.8476 53.747 35.4989 54.457C35.4989 54.457 35.6186 56.5995 35.7782 58.9901C37.5624 59.0207 39.3448 58.8644 41.0961 58.5239C41.0508 58.2746 41.0508 58.0193 41.0961 57.77C41.3854 55.9151 42.1836 52.5723 42.3432 50.4198C43.4939 49.3498 44.47 48.1082 45.2366 46.7397L45.1767 47.1762C44.628 51.4018 43.4806 55.9151 42.7822 57.1649C42.5561 57.5786 42.2778 57.962 41.9541 58.3056C45.5656 57.4633 48.9497 55.8502 51.8717 53.5781C54.7937 51.3059 57.1837 48.4292 58.876 45.1473C60.5683 41.8653 61.5224 38.2568 61.6722 34.5717C61.822 30.8867 61.1638 27.2133 59.7434 23.8063ZM58.2768 27.5657C57.8378 27.9923 56.9299 28.2799 56.7802 26.9904C56.6305 25.7009 56.5906 24.7983 56.5906 24.7983C56.5906 24.7983 54.665 21.3959 53.9467 21.3563C53.2283 21.3166 48.13 24.7983 46.7831 26.3159C45.6157 27.5955 45.3863 27.5062 45.3863 29.7579C45.3863 31.4541 45.6058 37.862 45.486 42.7621L37.3546 44.9146C34.7988 45.6438 32.1997 46.2137 29.5724 46.6207L28.5747 40.8378H28.435L25.8709 27.774C25.8709 27.774 22.0696 26.3457 20.6728 25.9588C20.0169 25.6735 19.2926 25.5808 18.5855 25.6915C17.8783 25.8023 17.2178 26.1118 16.6819 26.5837C16.1352 27.0597 15.698 27.6471 15.4001 28.3061C15.1023 28.9651 14.9507 29.6802 14.9558 30.4027C15.1667 30.8637 15.3273 31.3459 15.4347 31.841C15.4846 32.3171 14.2375 32.2675 13.4393 32.2675C12.6411 32.2675 12.5214 30.8391 13.15 29.1627C13.6403 27.8737 14.2482 26.632 14.9658 25.4529C15.5056 24.3997 16.2018 23.4333 17.0311 22.5862C17.0311 22.5862 17.1708 22.249 18.2782 22.3482C19.3857 22.4474 25.5416 22.7747 25.5416 22.7747L25.5915 20.523C32.2826 19.6045 39.0309 19.1603 45.7853 19.1938C45.7853 19.7989 45.7853 20.404 45.7853 21.0091C48.3438 19.8483 51.0986 19.1754 53.9068 19.0252C54.057 19.0214 54.2059 19.0548 54.34 19.1223C54.474 19.1898 54.5892 19.2894 54.675 19.4121C55.0142 19.8386 57.0795 22.3879 57.319 22.7549C57.9896 23.7078 58.5995 24.7017 59.1448 25.7307C58.9579 26.3822 58.6646 26.9988 58.2768 27.5558V27.5657Z" fill="#FDC305"></path><path d="M56.3312 21.4951C56.8001 22.0903 57.2092 22.616 57.3289 22.7747C57.9996 23.7277 58.6094 24.7215 59.1547 25.7505C58.9649 26.3806 58.6753 26.9767 58.2967 27.5161C57.8577 27.9427 56.9498 28.2303 56.8001 26.9408C56.6505 25.6513 56.5906 24.7983 56.5906 24.7983C56.5906 24.7983 54.665 21.3959 53.9467 21.3563C53.2283 21.3166 48.13 24.7983 46.783 26.3159C45.6157 27.5955 45.3862 27.5062 45.3862 29.7579C45.3862 31.2458 45.5558 36.3542 45.5159 40.8973C47.3218 41.0957 49.9757 41.5916 50.7739 42.7621C50.7739 42.7621 50.4846 35.64 58.5661 39.3697C58.5661 39.3697 58.8455 29.6587 70 32.1485C66.2081 27.7223 61.5597 24.0994 56.3312 21.4951Z" fill="#F06351"></path><path d="M45.8252 19.1938C45.8658 13.6973 45.3982 8.2087 44.4284 2.79724C44.4284 2.79724 44.2788 1.50773 43.5604 2.55918C42.9676 3.81617 42.5642 5.15308 42.3631 6.5269C38.0981 6.25483 33.817 6.36771 29.5724 6.86415C28.7543 4.13635 27.3575 2.89643 26.689 3.22377C26.0205 3.55111 25.9407 6.4773 25.9407 6.4773L25.6115 20.523C32.3091 19.6036 39.0641 19.1594 45.8252 19.1938Z" fill="#F06351"></path><path d="M45.2458 46.7397C45.3755 45.6784 45.4453 44.2698 45.4852 42.7125L37.3542 44.865C34.7996 45.611 32.2006 46.1974 29.5724 46.6207L30.6798 51.5804C30.6798 51.6895 30.6798 51.7986 30.7496 51.9077C32.2589 52.8811 33.8474 53.7272 35.4985 54.4371C37.9116 53.2903 40.2099 51.9186 42.3625 50.3404V50.4C43.5079 49.3352 44.4805 48.1005 45.2458 46.7397Z" fill="#E55645"></path><path d="M31.927 16.0891C31.8771 15.9899 32.9247 16.7636 33.3337 17.0017C33.7428 17.2397 33.9423 17.4183 33.9423 17.5869C33.9423 17.7556 33.6829 17.9242 33.3238 17.9242C32.9646 17.9242 32.4059 17.8051 32.3261 17.6663C32.2463 17.5274 32.9247 17.6663 33.2639 17.6663H33.5532C32.939 17.2195 32.3915 16.6885 31.927 16.0891Z" fill="black"></path><path d="M39.4099 16.1982C39.4099 16.1982 38.4122 17.4679 38.3224 17.5274C38.2326 17.5869 38.1528 17.8647 38.512 17.8151C38.9243 17.7539 39.3312 17.661 39.7291 17.5373C39.8389 17.4778 39.799 17.3389 39.6094 17.3588C39.4199 17.3786 38.931 17.4084 38.6117 17.4679L39.4598 16.2081C39.4598 16.2081 39.4897 16.0891 39.4099 16.1982Z" fill="black"></path><path d="M36.277 22.2589C36.7395 22.0563 37.1217 21.7077 37.3645 21.267C37.6438 20.6123 37.3645 20.3643 36.9255 20.275C36.3216 20.1655 35.6983 20.2859 35.1796 20.6123C34.7905 20.9793 34.8404 21.3364 35.1796 21.6042C35.5166 21.867 35.8852 22.0869 36.277 22.2589Z" fill="black"></path><path d="M35.9177 23.5087C35.8031 23.7337 35.6475 23.9355 35.4587 24.1039C35.1746 24.3312 34.8253 24.4631 34.4611 24.4808C33.9118 24.5344 33.3626 24.3784 32.9247 24.0444C32.7236 23.9274 32.5446 23.7764 32.3959 23.598C32.2961 23.49 32.1734 23.4053 32.0367 23.35C32.0367 23.35 32.785 27.4269 34.6008 28.0815C36.4165 28.7362 36.7557 27.3277 36.8056 26.9507C36.8664 25.8218 36.5811 24.7011 35.9875 23.7369C35.9875 23.4393 35.9676 23.6377 35.9177 23.5087Z" fill="#F06351"></path><path d="M34.2216 24.6395C33.7547 24.5728 33.3063 24.4127 32.9033 24.1689C32.5004 23.9251 32.1513 23.6027 31.8771 23.2211C31.8526 23.1938 31.839 23.1585 31.839 23.1219C31.839 23.0853 31.8526 23.05 31.8771 23.0227C31.8901 23.0095 31.9056 22.999 31.9228 22.9919C31.9399 22.9847 31.9583 22.981 31.9769 22.981C31.9954 22.981 32.0138 22.9847 32.031 22.9919C32.0481 22.999 32.0636 23.0095 32.0766 23.0227C32.3235 23.3671 32.6367 23.6593 32.9981 23.8823C33.3595 24.1054 33.7618 24.2549 34.1817 24.3221C34.5139 24.2973 34.8355 24.1945 35.1199 24.022C35.4044 23.8496 35.6436 23.6125 35.8179 23.3302L35.9576 23.1417L36.0573 23.36C36.0573 23.36 36.4364 24.1138 37.055 24.1535C37.6736 24.1932 38.1125 23.7369 38.6812 22.8739C38.7024 22.8423 38.7353 22.8204 38.7727 22.813C38.8101 22.8055 38.849 22.8132 38.8807 22.8342C38.9125 22.8553 38.9345 22.888 38.942 22.9252C38.9495 22.9624 38.9418 23.001 38.9206 23.0326C38.2555 24.0047 37.627 24.4709 37.035 24.4312C36.8063 24.4011 36.5871 24.3204 36.3938 24.1951C36.2004 24.0698 36.0378 23.9031 35.9177 23.7071C35.7225 23.9781 35.4689 24.2025 35.1755 24.3638C34.8821 24.5251 34.5563 24.6193 34.2216 24.6395Z" fill="black"></path><path d="M36.1771 37.9909C38.2433 37.9909 39.9183 36.3255 39.9183 34.2712C39.9183 32.2168 38.2433 30.5514 36.1771 30.5514C34.1108 30.5514 32.4358 32.2168 32.4358 34.2712C32.4358 36.3255 34.1108 37.9909 36.1771 37.9909Z" fill="#FDC305"></path><path d="M41.1355 31.2458L38.0128 32.5452L39.1601 26.9607L31.6776 36.6419L34.8003 35.3425L33.653 40.937L41.1355 31.2458ZM33.7627 35.0449L37.913 29.6786L37.1049 33.6463L39.1003 32.8329L34.92 38.2092L35.7282 34.2414L33.7627 35.0449Z" fill="#111111"></path><path d="M32.3659 33.5868C32.983 33.5868 33.4833 33.0894 33.4833 32.4758C33.4833 31.8622 32.983 31.3648 32.3659 31.3648C31.7488 31.3648 31.2485 31.8622 31.2485 32.4758C31.2485 33.0894 31.7488 33.5868 32.3659 33.5868Z" fill="#111111"></path><path d="M38.871 37.614C39.3063 37.614 39.6592 37.2631 39.6592 36.8304C39.6592 36.3976 39.3063 36.0467 38.871 36.0467C38.4358 36.0467 38.0829 36.3976 38.0829 36.8304C38.0829 37.2631 38.4358 37.614 38.871 37.614Z" fill="#111111"></path><path d="M39.8288 35.4615C40.0216 35.4615 40.178 35.3061 40.178 35.1143C40.178 34.9226 40.0216 34.7672 39.8288 34.7672C39.6359 34.7672 39.4796 34.9226 39.4796 35.1143C39.4796 35.3061 39.6359 35.4615 39.8288 35.4615Z" fill="#111111"></path><path d="M45.7753 20.9892C43.9742 22.6034 42.278 24.3295 40.6969 26.1572C39.1219 27.9717 37.3445 29.6023 35.399 31.0177C35.1795 30.4919 33.7727 29.5099 33.7727 29.5099C33.7727 29.5099 30.6399 27.3773 28.5846 25.7009C27.4735 24.7809 26.4268 23.7867 25.4517 22.7251L23.4563 22.616C26.3368 26.7991 30.5566 29.8897 35.4289 31.3847C36.287 31.2458 38.7014 29.5298 40.5073 28.1311C42.6438 26.3247 44.6446 24.3654 46.4936 22.2688C46.9906 21.6816 47.376 21.0094 47.631 20.285C46.4936 20.6619 45.7753 20.9892 45.7753 20.9892Z" fill="#F06351"></path><path d="M65.0708 3.47176L56.6305 12.8356L55.4133 10.8616L63.5443 0L65.0708 3.47176Z" fill="#FDC305"></path><path d="M62.507 17.1207L68.0341 13.0439L67.2559 9.33406L61.8685 14.1052L62.507 17.1207Z" fill="#FDC305"></path><path d="M59.7833 48.9716L65.899 52.1259L68.902 49.8048L62.2276 47.077L59.7833 48.9716Z" fill="#FDC305"></path><path d="M1.94543 5.92182L5.00828 2.58894L14.2766 11.5163L13.0595 13.7779L1.94543 5.92182Z" fill="#FDC305"></path><path d="M7.36287 16.1486L2.67383 13.0439L0.279419 16.8827L5.41742 19.2633L7.36287 16.1486Z" fill="#FDC305"></path><path d="M13.878 52.1259L9.33862 55.4489L12.1321 59L16.1427 55.0124L13.878 52.1259Z" fill="#FDC305"></path><path d="M25.8708 27.774C25.8708 27.774 22.0695 26.3457 20.6727 25.9588C20.0169 25.6735 19.2926 25.5808 18.5855 25.6915C17.8783 25.8023 17.2178 26.1118 16.6819 26.5837C16.1351 27.0597 15.6979 27.6471 15.4001 28.3061C15.1022 28.9651 14.9507 29.6802 14.9558 30.4027C15.1667 30.8637 15.3273 31.3459 15.4347 31.841C15.4846 32.3171 14.2374 32.2675 13.4393 32.2675C12.6411 32.2675 12.5214 30.8391 13.1499 29.1627C13.6403 27.8737 14.2481 26.632 14.9658 25.4529C9.52821 28.27 0 34.7771 0 34.7771C2.72546 34.6137 5.46016 34.6933 8.17132 35.0151C13.4093 35.5409 13.1599 39.6474 13.1599 39.6474C15.0022 39.1425 16.8798 38.7745 18.7771 38.5464C20.8922 38.4075 21.0419 40.6493 21.0419 40.6493L21.5707 44.4781C22.3736 43.6145 23.2591 42.8305 24.2146 42.1372C25.4463 41.157 27.0145 40.6942 28.5846 40.8477L25.8708 27.774Z" fill="#F06351"></path></svg><svg viewBox="0 0 118 21" fill="none" id="logo-text"><path d="M1.42351 19.2159C0.391283 17.7277 -0.102273 15.9474 0.0207226 14.156V6.84405C-0.109487 5.03944 0.376607 3.24353 1.40346 1.73542C2.33197 0.572011 3.91845 -0.00644536 6.16291 5.41628e-05C8.40736 0.00655368 9.92704 0.516766 10.722 1.53069C11.6912 2.78717 12.1642 4.3407 12.0546 5.90812V7.62399H7.90636V5.76188C7.90077 5.27192 7.85723 4.78307 7.77611 4.29949C7.72595 3.9494 7.56075 3.6245 7.30517 3.3733C7.1474 3.24166 6.96423 3.14195 6.76637 3.08001C6.56852 3.01807 6.35995 2.99515 6.15288 3.01258C5.8555 2.9694 5.55167 3.01643 5.28273 3.14726C5.0138 3.2781 4.79283 3.48638 4.6499 3.74378C4.38644 4.42844 4.27049 5.15851 4.30923 5.88862V15.1699C4.26352 15.9049 4.39743 16.6399 4.7 17.3148C4.84457 17.5582 5.05909 17.7553 5.31721 17.8817C5.57533 18.0082 5.86578 18.0585 6.15288 18.0265C6.435 18.0653 6.72251 18.0164 6.97441 17.8869C7.22631 17.7573 7.42973 17.5537 7.55567 17.305C7.79804 16.6191 7.90347 15.8944 7.86628 15.1699V13.2201H12.0145V14.9067C12.1366 16.4972 11.7023 18.0812 10.7821 19.4011C9.90032 20.4735 8.3773 21 6.21301 21C4.04871 21 2.35536 20.415 1.42351 19.2159Z" fill="#111111"></path><path d="M17.7065 0.282784H22.4559L26.4638 20.7563H22.516L21.8046 16.2326H18.478L17.6764 20.727H13.6685L17.7065 0.282784ZM21.3637 13.6588L20.1012 5.4304L18.8487 13.6588H21.3637Z" fill="#111111"></path><path d="M29.5405 3.36356H26.2941V0.282784H37.0354V3.36356H33.829V20.727H29.5305L29.5405 3.36356Z" fill="#111111"></path><path d="M45.4631 0.282784H53.6093V2.40813H48.399V9.16438H52.6273V11.1825H48.399V18.6797H53.6594V20.727H45.4631V0.282784Z" fill="#444444"></path><path d="M56.0247 0.282784H58.0286L64.0406 13.8635V0.282784H66.4854V20.7563H64.6117L58.5998 6.7953V20.727H56.1148L56.0247 0.282784Z" fill="#444444"></path><path d="M69.7224 0.282784H77.8585V2.40813H72.6482V9.16438H76.9167V11.1825H72.6883V18.6797H77.9187V20.727H69.7224V0.282784Z" fill="#444444"></path><path d="M80.2739 0.282779H84.5023C86.1687 0.152311 87.8281 0.605237 89.1816 1.55993C90.1836 2.40812 90.6745 3.79252 90.6745 5.71313C90.6745 8.31293 89.8095 9.90207 88.0794 10.4805L91.0854 20.727H88.2397L85.4843 11.1337H83.2097V20.727H80.2739V0.282779ZM84.2819 9.05713C85.2472 9.148 86.2124 8.88364 86.9872 8.31618C87.3021 7.95359 87.5375 7.53216 87.6788 7.0778C87.8201 6.62344 87.8643 6.14576 87.8089 5.67413C87.829 5.0127 87.7307 4.3529 87.5183 3.72427C87.4321 3.49248 87.2991 3.27987 87.127 3.09901C86.9549 2.91815 86.7472 2.77273 86.5163 2.67135C85.8658 2.41169 85.1644 2.29517 84.4622 2.33013H83.1697V9.09613L84.2819 9.05713Z" fill="#444444"></path><path d="M94.623 19.2159C93.6653 17.643 93.2215 15.8239 93.3505 14V7.17552C93.316 5.85855 93.4848 4.54399 93.8515 3.27581C94.1409 2.32238 94.7559 1.49354 95.595 0.926233C96.6079 0.332253 97.7805 0.0470228 98.9616 0.107293C99.7256 0.0365995 100.496 0.129098 101.22 0.378323C101.943 0.627548 102.602 1.02749 103.15 1.55019C104.111 2.86053 104.566 4.45937 104.432 6.0641V6.82455H101.677V6.19084C101.696 5.4329 101.635 4.67506 101.497 3.92901C101.405 3.45088 101.134 3.02319 100.735 2.72985C100.215 2.43117 99.6144 2.29188 99.0117 2.33013C98.3572 2.27565 97.7067 2.47149 97.1981 2.87609C96.7826 3.25974 96.511 3.76769 96.4266 4.31898C96.2997 5.12206 96.2427 5.93414 96.2563 6.74655V14.3412C96.1767 15.4953 96.3793 16.6513 96.8474 17.7145C97.1193 18.0415 97.4644 18.3036 97.8564 18.4809C98.2484 18.6582 98.6768 18.746 99.109 18.7375C99.5411 18.7291 99.9656 18.6246 100.35 18.4321C100.734 18.2396 101.068 17.9641 101.326 17.6267C101.809 16.5023 102.018 15.2844 101.938 14.0683V12.6254H99.2722V10.6073H104.583V20.727H102.769L102.479 18.3774C102.249 19.158 101.755 19.8401 101.076 20.3127C100.398 20.7853 99.5747 21.0207 98.7412 20.9805C97.9576 21.0477 97.1692 20.9212 96.4492 20.6127C95.7293 20.3042 95.1011 19.8237 94.623 19.2159Z" fill="#444444"></path><path d="M110.675 13.5126L106.136 0.282784H108.862L112.078 10.1491L115.245 0.282784H118L113.491 13.5126V20.727H110.685L110.675 13.5126Z" fill="#444444"></path></svg><svg viewBox="0 0 24 24" fill="none" id="menu-nav-mobile"><line y1="3" x2="24" y2="3" stroke="black" stroke-width="2"></line><line y1="11" x2="24" y2="11" stroke="black" stroke-width="2"></line><line y1="19" x2="24" y2="19" stroke="black" stroke-width="2"></line></svg><svg viewBox="0 0 26 30" fill="none" id="process-food"><path fill-rule="evenodd" clip-rule="evenodd" d="M19.1173 0.0761497C19.491 -0.0786313 19.9211 0.00692445 20.2071 0.292922C21.1156 1.20142 22.3038 3.17065 23.2659 6.21082C24.2373 9.28039 25 13.5081 25 19C25 19.5523 24.5523 20 24 20H20.5V29C20.5 29.5523 20.0523 30 19.5 30C18.9477 30 18.5 29.5523 18.5 29V1.00003C18.5 0.595567 18.7436 0.230931 19.1173 0.0761497ZM20.5 18H22.9912C22.9053 13.1836 22.2051 9.48755 21.3591 6.81424C21.0807 5.93457 20.7885 5.1715 20.5 4.51895V18Z" fill="white"></path><path fill-rule="evenodd" clip-rule="evenodd" d="M6.5 0C7.05228 0 7.5 0.447715 7.5 1V29C7.5 29.5523 7.05228 30 6.5 30C5.94772 30 5.5 29.5523 5.5 29V1C5.5 0.447715 5.94772 0 6.5 0Z" fill="white"></path><path fill-rule="evenodd" clip-rule="evenodd" d="M2 0C2.55228 0 3 0.447715 3 1V6.5C3 7.05686 3.19203 7.81518 3.70088 8.41656C4.18001 8.98281 5.01446 9.5 6.49993 9.5C7.05221 9.5 7.49993 9.94771 7.49993 10.5C7.49993 11.0523 7.05221 11.5 6.49993 11.5C4.48547 11.5 3.06995 10.7672 2.1741 9.70844C1.30797 8.68482 1 7.44314 1 6.5V1C1 0.447715 1.44772 0 2 0Z" fill="white"></path><path fill-rule="evenodd" clip-rule="evenodd" d="M11 0C10.4477 0 10 0.447715 10 1V6.5C10 7.05686 9.80797 7.81518 9.29912 8.41656C8.81999 8.98281 7.9854 9.5 6.49993 9.5C5.94765 9.5 5.50007 9.94771 5.50007 10.5C5.50007 11.0523 5.94765 11.5 6.49993 11.5C8.51439 11.5 9.93005 10.7672 10.8259 9.70844C11.692 8.68482 12 7.44314 12 6.5V1C12 0.447715 11.5523 0 11 0Z" fill="white"></path></svg><svg viewBox="0 0 25 28" fill="none" id="process-leaf"><path d="M24.8438 0.767C24.7434 0.317 24.3647 0 23.9325 0C23.9306 0 23.9288 0 23.9269 0C18.9891 0.033 6.98156 0.916 2.13375 8.38C-0.384376 12.258 -0.600938 17.293 1.48969 23.345C1.50562 23.392 1.53844 23.424 1.56 23.467C0.812812 25.44 0.523125 26.753 0.515624 26.79C0.406875 27.33 0.730312 27.862 1.23656 27.978C1.30219 27.993 1.36781 28 1.43344 28C1.86562 28 2.25469 27.679 2.34937 27.21C2.36906 27.108 4.75781 16.837 13.2028 10.832C13.6341 10.526 13.7503 9.905 13.4625 9.445C13.1747 8.985 12.5934 8.86 12.1622 9.168C7.37344 12.573 4.42406 17.176 2.68969 20.824C1.44844 16.246 1.77375 12.447 3.67594 9.519C7.41937 3.755 16.2984 2.365 21.6581 2.071C20.505 3.872 19.245 7.174 19.245 13C19.245 16.12 18.4153 18.522 16.7803 20.14C14.1591 22.731 9.90094 22.974 6.78656 22.724C6.26906 22.679 5.82 23.095 5.78062 23.646C5.74125 24.196 6.12844 24.676 6.64406 24.718C7.2675 24.769 7.93313 24.8 8.625 24.8C11.7956 24.8 15.4941 24.137 18.0544 21.606C20.0888 19.595 21.12 16.7 21.12 13.001C21.12 3.902 24.3356 1.905 24.3516 1.896C24.7416 1.687 24.9459 1.219 24.8438 0.767Z" fill="white"></path></svg><svg viewBox="0 0 27 29" fill="none" id="process-pure"><path d="M11.375 0C9.74375 0 8.475 1.35937 8.475 3.08125C8.475 4.80312 9.74375 6.1625 11.375 6.1625C13.0063 6.1625 14.275 4.80312 14.275 3.08125C14.275 1.35937 13.0063 0 11.375 0ZM11.375 1.17812C12.3719 1.17812 13.0969 2.02094 13.0969 3.08125C13.0969 4.07812 12.3084 4.98438 11.375 4.98438C10.3781 4.98438 9.65313 4.14156 9.65313 3.08125C9.65313 2.08437 10.4325 1.17812 11.375 1.17812ZM0.5 24.7406C0.5 25.9188 0.907813 26.9156 1.85938 27.7313C2.85625 28.5831 4.03438 28.5106 4.03438 28.5106H23.0656C23.845 28.5106 24.8781 28.13 25.6937 27.0606C26.5366 26.0638 26.4822 24.7044 26.4822 24.7044V7.48563C26.4822 7.05063 26.3734 6.8875 25.7391 6.8875C25.1047 6.8875 25.0503 7.15938 25.0503 7.47656V24.6953C25.0322 24.9944 24.9778 25.7828 24.3072 26.4172C23.5731 27.0425 22.8572 26.9609 22.8572 26.9609C22.8572 26.9609 4.73219 26.9609 3.82594 26.9338C3.48156 26.8703 2.91969 26.7434 2.37594 26.0275C1.86844 25.3025 1.96812 24.3962 1.96812 24.3962V7.1775C1.96812 6.71531 1.7325 6.54313 1.24313 6.54313C0.75375 6.54313 0.5 6.71531 0.5 7.12313V24.7406ZM16.8125 8.42813C15.725 8.66375 14.6375 8.80875 12.5531 10.7844C10.4688 12.7781 8.92813 12.6875 7.3875 12.5969C5.84688 12.5063 4.21563 11.0563 3.94375 10.6938C3.60844 10.3403 3.0375 10.5759 2.85625 10.8116C2.70219 11.0472 2.70219 11.455 2.965 11.8084C4.23375 12.9866 5.41188 13.8928 7.6775 14.0741C9.94312 14.2916 12.1181 13.2675 13.5681 11.8084C15.0181 10.3584 15.7431 10.0866 16.8306 9.90531C19.4587 9.48844 20.9994 10.5216 21.9056 11.1741C22.9025 12.2616 23.1744 11.9534 23.4462 11.6453C23.99 10.9294 23.2197 10.3766 22.3588 9.74219C20.5463 8.56406 18.8244 8.11094 16.8306 8.47344L16.8125 8.42813ZM7.75 15.5875C6.57188 15.5875 5.66562 16.5844 5.66562 17.8531C5.66562 19.1219 6.57188 20.1188 7.75 20.1188C8.92813 20.1188 9.83438 19.1219 9.83438 17.8531C9.83438 16.5844 8.92813 15.5875 7.75 15.5875ZM19.5312 16.3669C17.9906 16.3669 16.7219 17.7262 16.7219 19.3575C16.7219 20.9888 17.9906 22.3481 19.5312 22.3481C21.0719 22.3481 22.3406 20.9888 22.3406 19.3575C22.3406 17.7262 21.0719 16.3669 19.5312 16.3669ZM19.5312 17.8169C20.3288 17.8169 20.9813 18.5147 20.9813 19.3575C20.9813 20.2184 20.3288 20.8981 19.5312 20.8981C18.7337 20.8981 18.0812 20.2003 18.0812 19.3575C18.0812 18.4966 18.7337 17.8169 19.5312 17.8169Z" fill="white"></path></svg><svg viewBox="0 0 27 31" fill="none" id="process-result"><path d="M6.12057 0C5.0538 0 5.0538 1.5831 6.12057 1.5831H12.7878V3.18731C5.96055 3.62002 0.562721 9.41417 0.562721 16.4854C0.562721 20.4959 2.31222 24.1159 5.07514 26.5539C5.55518 26.976 5.61919 27.7254 5.18181 28.1897L3.64567 29.7412C2.89894 30.4272 4.00837 31.4931 4.68043 30.7438L6.68595 28.7069C7.03798 28.3692 7.5607 28.2847 7.99807 28.4958C9.72279 29.3397 11.6191 29.784 13.5432 29.795C15.4673 29.8059 17.3687 29.3833 19.1031 28.5591C19.5298 28.348 20.0632 28.4325 20.4045 28.7702L22.3461 30.7438C23.0288 31.377 24.0102 30.4272 23.3915 29.7412L21.9407 28.2636C21.4926 27.8098 21.5567 27.0605 22.0474 26.6277C23.5031 25.3585 24.6674 23.7959 25.4623 22.0447C26.2571 20.2936 26.6641 18.3944 26.6558 16.4748C26.6558 9.40362 21.226 3.59891 14.388 3.18731V1.5831H21.0553C22.122 1.5831 22.122 0 21.0553 0H6.12057ZM2.00285 16.4748C2.00285 9.94187 7.198 4.65431 13.6093 4.65431C20.0098 4.65431 25.205 9.94187 25.205 16.4748C25.205 23.0183 20.0098 28.3164 13.6093 28.3164C7.20867 28.3164 2.00285 23.0183 2.00285 16.4748ZM12.7985 8.37988C12.7985 7.28226 14.4627 7.28226 14.4627 8.37988V17.0131C14.4627 17.237 14.3728 17.4517 14.2127 17.6101C14.0527 17.7684 13.8356 17.8574 13.6093 17.8574C13.3961 17.8574 13.1915 17.7743 13.0397 17.6262C12.888 17.478 12.8013 17.2767 12.7985 17.0658V8.37988ZM7.80605 10.9973C8.11444 10.9973 8.4102 10.8761 8.62826 10.6603C8.84632 10.4446 8.96883 10.152 8.96883 9.84688C8.96883 9.54178 8.84632 9.24918 8.62826 9.03344C8.4102 8.8177 8.11444 8.6965 7.80605 8.6965C7.51825 8.72386 7.25108 8.85633 7.05666 9.06805C6.86224 9.27977 6.75453 9.55556 6.75453 9.84161C6.75453 10.1277 6.86224 10.4034 7.05666 10.6152C7.25108 10.8269 7.51825 10.9593 7.80605 10.9867V10.9973ZM19.4018 10.9973C19.7102 10.9973 20.0059 10.8761 20.224 10.6603C20.4421 10.4446 20.5646 10.152 20.5646 9.84688C20.5646 9.54178 20.4421 9.24918 20.224 9.03344C20.0059 8.8177 19.7102 8.6965 19.4018 8.6965C19.114 8.72386 18.8468 8.85633 18.6524 9.06805C18.458 9.27977 18.3503 9.55556 18.3503 9.84161C18.3503 10.1277 18.458 10.4034 18.6524 10.6152C18.8468 10.8269 19.114 10.9593 19.4018 10.9867V10.9973ZM8.96883 23.5882C8.96883 25.1185 6.64328 25.1185 6.64328 23.5882C6.64328 22.0579 8.96883 22.0579 8.96883 23.5882ZM13.6093 27.0288C13.7706 27.0441 13.9334 27.0259 14.0872 26.9754C14.241 26.9248 14.3824 26.843 14.5024 26.7352C14.6223 26.6273 14.7182 26.4959 14.7838 26.3493C14.8494 26.2026 14.8833 26.044 14.8833 25.8837C14.8833 25.7233 14.8494 25.5648 14.7838 25.4181C14.7182 25.2715 14.6223 25.14 14.5024 25.0322C14.3824 24.9244 14.241 24.8426 14.0872 24.792C13.9334 24.7414 13.7706 24.7232 13.6093 24.7386C13.3215 24.7659 13.0543 24.8984 12.8599 25.1101C12.6654 25.3219 12.5577 25.5976 12.5577 25.8837C12.5577 26.1697 12.6654 26.4455 12.8599 26.6572C13.0543 26.869 13.3215 27.0014 13.6093 27.0288ZM5.49117 16.6437C5.50668 16.8033 5.48829 16.9643 5.43717 17.1165C5.38606 17.2687 5.30336 17.4086 5.19437 17.5273C5.08539 17.646 4.95252 17.7408 4.80431 17.8057C4.6561 17.8706 4.49581 17.9041 4.33373 17.9041C4.17166 17.9041 4.01137 17.8706 3.86316 17.8057C3.71494 17.7408 3.58208 17.646 3.4731 17.5273C3.36411 17.4086 3.28141 17.2687 3.23029 17.1165C3.17918 16.9643 3.16079 16.8033 3.17629 16.6437C3.20396 16.3589 3.33785 16.0946 3.55185 15.9023C3.76585 15.7099 4.04461 15.6033 4.33373 15.6033C4.62286 15.6033 4.90162 15.7099 5.11562 15.9023C5.32962 16.0946 5.46351 16.3589 5.49117 16.6437ZM22.8794 17.794C23.0408 17.8094 23.2036 17.7912 23.3574 17.7406C23.5112 17.6901 23.6526 17.6082 23.7726 17.5004C23.8925 17.3926 23.9884 17.2611 24.054 17.1145C24.1196 16.9679 24.1535 16.8093 24.1535 16.6489C24.1535 16.4886 24.1196 16.33 24.054 16.1834C23.9884 16.0367 23.8925 15.9053 23.7726 15.7975C23.6526 15.6896 23.5112 15.6078 23.3574 15.5573C23.2036 15.5067 23.0408 15.4885 22.8794 15.5038C22.5916 15.5312 22.3245 15.6637 22.13 15.8754C21.9356 16.0871 21.8279 16.3629 21.8279 16.6489C21.8279 16.935 21.9356 17.2108 22.13 17.4225C22.3245 17.6342 22.5916 17.7667 22.8794 17.794ZM20.5646 23.5987C20.5646 25.1185 18.239 25.1185 18.239 23.5882C18.239 22.0579 20.5646 22.0579 20.5646 23.5882V23.5987Z" fill="white"></path></svg><svg viewBox="0 0 67 28" fill="none" id="program-cat-pro"><path d="M60.5591 2.87843C61.1364 1.95997 61.9036 1.17573 62.8091 0.578427C63.3091 0.228427 63.6091 0.228427 63.9091 0.878427C64.3091 1.82843 64.6591 2.82843 64.3591 3.87843C64.3045 4.05651 64.2942 4.24523 64.3291 4.4282C64.3639 4.61117 64.4429 4.78288 64.5591 4.92843C64.8591 5.32843 65.1091 5.72843 65.3591 6.07843C65.6994 6.51031 65.9201 7.02408 65.9991 7.5682C66.078 8.11231 66.0125 8.66763 65.8091 9.17843C65.6256 9.67433 65.5908 10.213 65.7091 10.7284C65.809 11.2234 65.809 11.7334 65.7091 12.2284C65.6687 12.5991 65.5187 12.9494 65.2782 13.2344C65.0377 13.5194 64.7177 13.7262 64.3591 13.8284C63.7196 13.9501 63.1488 14.3069 62.7591 14.8284C62.7119 14.9052 62.6457 14.9686 62.5669 15.0124C62.488 15.0562 62.3993 15.0789 62.3091 15.0784C61.7091 15.1784 60.2091 13.8284 60.2091 13.2284V12.9284C60.2591 11.1284 60.1591 10.9784 58.5091 10.2284C58.1638 10.1066 57.8544 9.90037 57.6091 9.62843C57.3091 9.22843 56.9091 9.27843 56.4591 9.42843C56.0091 9.57843 55.7591 9.87843 55.8091 10.3784C55.9599 11.5889 56.0101 12.8097 55.9591 14.0284C55.9624 14.1675 55.9966 14.3041 56.0591 14.4284C57.6091 16.6784 58.2091 19.3284 58.9591 21.8784C59.5591 23.8284 60.6591 24.8784 62.6591 25.0284C62.9792 25.054 63.2968 25.1041 63.6091 25.1784C64.02 25.2444 64.4017 25.4322 64.7048 25.7174C65.0078 26.0027 65.2183 26.3723 65.3091 26.7784C65.6591 27.8284 65.4591 28.0784 64.4091 28.0784H61.1591C60.7384 28.0997 60.3259 27.9562 60.0091 27.6784C59.5031 27.2514 58.9282 26.9132 58.3091 26.6784C57.6247 26.4258 57.0323 25.9728 56.6091 25.3784C56.0234 24.5602 55.3531 23.806 54.6091 23.1284C53.2091 21.6784 51.7091 20.2784 50.4091 18.7784C49.4195 17.7563 48.8486 16.4006 48.8091 14.9784C48.8091 14.5284 48.7091 14.3284 48.2091 14.5284C48.0594 14.6234 47.8864 14.6753 47.7091 14.6784C46.3091 14.6784 45.6091 15.5284 45.1091 16.7784C44.6591 17.8284 44.0591 18.8284 43.5091 19.8784C43.1972 20.5357 43.0269 21.2511 43.0091 21.9784C43.0091 23.1784 43.3091 23.5784 44.4091 23.9784C45.1091 24.2284 45.7591 24.4784 46.1091 25.1784C46.5091 25.9784 46.4091 26.1784 45.5591 26.2284H42.1591C41.9631 26.2478 41.7659 26.2052 41.5955 26.1065C41.425 26.0078 41.2899 25.8581 41.2091 25.6784L40.3091 24.1784C40.0438 23.7871 39.874 23.3389 39.8132 22.87C39.7524 22.4011 39.8024 21.9245 39.9591 21.4784C40.1755 20.6102 40.1926 19.7042 40.0091 18.8284C39.8831 18.2185 39.8939 17.5882 40.0409 16.9829C40.1879 16.3777 40.4674 15.8126 40.8591 15.3284C41.1591 14.9784 41.1591 14.8284 40.6591 14.7284C38.6146 14.2941 36.6325 13.6054 34.7591 12.6784C34.7459 12.6784 34.7331 12.6732 34.7238 12.6638C34.7144 12.6544 34.7091 12.6417 34.7091 12.6284C33.1091 12.0284 32.8091 12.1284 32.3591 13.7784C31.9591 15.1784 31.5591 16.5784 31.2591 18.0284C30.9091 19.6284 31.3091 21.1284 31.8091 22.6284C32.0091 23.2284 32.6091 23.1784 33.0591 23.3284C34.0591 23.6284 34.9091 24.0284 35.3091 25.0784C35.6591 25.8784 35.6091 25.9784 34.7591 25.9784C33.9091 25.9784 33.0591 25.9284 32.1591 25.9784C31.3997 25.9922 30.6584 25.7451 30.0591 25.2784C27.6591 23.6784 26.9591 21.2284 26.7591 18.5784C26.6591 16.9284 25.7591 15.6284 24.7091 14.3784C24.5091 14.1284 24.3091 14.0284 24.0091 14.2284C22.9359 14.8202 21.8153 15.3219 20.6591 15.7284C18.2462 16.5804 16.1289 18.1077 14.5591 20.1284C13.9729 20.8659 13.5933 21.746 13.4591 22.6784C13.3091 23.5784 13.5591 23.9784 14.4591 24.2284C15.3591 24.4784 15.8091 24.9784 15.9091 25.9284C15.9591 26.3284 15.8091 26.5284 15.4091 26.5284H11.3591C11.2266 26.519 11.0982 26.4778 10.9851 26.4081C10.8719 26.3385 10.7772 26.2425 10.7091 26.1284C10.081 25.3508 9.74494 24.3779 9.75912 23.3784C9.73288 21.6509 9.88366 19.9252 10.2091 18.2284C10.2759 17.7203 10.4656 17.2361 10.7618 16.8178C11.0581 16.3996 11.4519 16.06 11.9091 15.8284C14.8591 14.4284 16.4091 11.7784 17.8091 9.02843C18.1091 8.47843 17.8591 8.37843 17.3591 8.42843C15.9598 8.62269 14.634 9.17368 13.5091 10.0284C12.0362 11.1029 10.6487 12.2897 9.35912 13.5784C7.98394 14.9753 6.16046 15.8427 4.20911 16.0284C0.559114 16.2284 -1.14089 14.1784 -0.990885 10.8784C-0.957354 9.75323 -0.533061 8.67482 0.209115 7.82843C0.467126 7.49393 0.818981 7.24392 1.21975 7.11033C1.62052 6.97674 2.05201 6.96563 2.45912 7.07843C3.20912 7.27843 3.40911 7.67843 3.10911 8.42843C2.95911 8.72843 2.75911 8.97843 2.60911 9.27843C2.39341 9.58491 2.22488 9.92198 2.10911 10.2784C1.55911 11.7784 2.30911 12.8284 3.85911 12.9784C5.50911 13.1284 6.85912 12.4284 8.10912 11.4284C9.61508 10.2226 10.9595 8.82775 12.1091 7.27843C12.9687 6.14713 14.0512 5.20407 15.2895 4.50749C16.5279 3.81091 17.8959 3.37559 19.3091 3.22843C20.4591 3.07843 21.4591 2.57843 22.5591 2.27843C24.6164 1.65123 26.7586 1.34761 28.9091 1.37843C29.9052 1.41991 30.8974 1.23172 31.8091 0.828427C34.2591 -0.171573 36.8091 -0.171573 39.3591 0.328427C41.3591 0.728427 43.3591 1.22843 45.3091 1.72843C46.4696 1.94467 47.6629 1.91057 48.8091 1.62843C51.0034 1.07219 53.248 0.737189 55.5091 0.628427C56.9904 0.55636 58.4667 0.848196 59.8091 1.47843C60.8091 1.92843 60.8091 1.92843 60.5591 2.87843Z" fill="black"></path></svg><svg viewBox="0 0 36 50" fill="none" id="program-cat-slim"><path d="M28.2034 0H28.008C27.6778 0.187081 27.415 0.473924 27.2571 0.819588C26.968 1.37738 26.7453 1.96735 26.5937 2.57732C26.5612 2.76073 26.4688 2.92811 26.331 3.05315C26.1932 3.17818 26.0179 3.25377 25.8326 3.26804C25.2658 3.36597 24.7288 3.59243 24.2626 3.93012C23.7965 4.26781 23.4135 4.7078 23.1429 5.21649C22.7708 5.87697 22.4526 6.5665 22.1914 7.27835C21.4611 9.17526 20.9006 11.134 20.2114 13.0464C19.8874 13.9175 19.872 13.9175 18.8949 13.9175C17.7274 13.9175 17.8097 13.7371 17.7943 15.0258C17.7943 15.433 17.9177 15.6392 18.3497 15.6186C18.4834 15.6186 18.684 15.5515 18.7354 15.7268C18.7869 15.9021 18.612 15.9794 18.5091 16.0825C17.8994 16.7029 17.1276 17.1388 16.2823 17.3402C15.3051 17.6031 14.3074 17.8093 13.356 18.1289C10.9131 18.9485 8.65543 20.0928 6.89657 22.0309C5.86814 23.2347 5.04455 24.6001 4.45886 26.0722C2.57143 30.5258 1.656 35.2165 0.946286 39.9536C0.612 42.1753 0.375429 44.4072 0.195429 46.6546C0.102857 47.7577 0 48.8763 0 50H17.1411C17.1696 49.7731 17.1283 49.5429 17.0229 49.3402C16.858 48.9289 16.5901 48.5672 16.2451 48.29C15.9 48.0128 15.4895 47.8295 15.0531 47.7577C14.6931 47.6753 14.652 47.567 14.8731 47.2835C15.2338 46.801 15.5103 46.2607 15.6909 45.6856C16.5291 43.2062 16.8531 40.6186 17.2594 38.0567C17.4889 36.0999 18.0894 34.2051 19.0286 32.4742C19.7611 31.2002 20.7382 30.0842 21.9034 29.1907C22.3303 28.866 22.3457 28.866 22.4177 29.4175C22.4691 29.7835 22.4794 30.1598 22.5051 30.5309C22.6595 32.9662 22.6285 35.4097 22.4126 37.8402C22.2184 39.7242 22.1926 41.6217 22.3354 43.5103C22.5399 45.7029 22.9304 47.8739 23.5029 50H30.3429C30.2536 49.442 29.9973 48.9243 29.6078 48.5156C29.2184 48.1069 28.7143 47.8264 28.1623 47.7113C27.5177 47.6087 26.8587 47.6438 26.2286 47.8144C25.92 47.8866 25.7914 47.8144 25.7657 47.4794C25.5529 44.7505 25.7261 42.0051 26.28 39.3247C26.966 36.2304 27.4912 33.1025 27.8537 29.9536C27.9887 28.6819 28.3881 27.4528 29.0263 26.3454C29.6383 25.2526 30.1731 24.1186 30.7749 23.0206C31.0138 22.6214 31.1575 22.1723 31.195 21.7083C31.2325 21.2443 31.1626 20.7779 30.9909 20.3454C30.852 19.9794 30.7183 19.6082 30.5486 19.2577C30.0343 18.2526 29.52 17.2577 29.0469 16.2423C28.7949 15.7268 28.8514 15.6649 29.412 15.6495C30.2503 15.6495 30.2503 15.6495 30.2657 14.8041C30.2657 14.6907 30.2657 14.5773 30.2657 14.4639C30.2657 14.1082 30.132 13.9124 29.7514 13.9485C29.4943 13.9485 29.2371 13.9485 28.9697 13.9485C28.6149 13.9485 28.512 13.799 28.5994 13.433C28.7729 12.838 29.1142 12.306 29.5823 11.9009C30.0503 11.4958 30.6252 11.2349 31.2377 11.1495C32.3772 11.0505 33.5251 11.1252 34.6423 11.3711C34.7712 11.4118 34.9109 11.4001 35.0312 11.3383C35.1515 11.2766 35.2427 11.1699 35.2851 11.0412C35.4909 10.5258 35.7171 10.0103 35.9486 9.49484C36.001 9.40339 36.0242 9.29801 36.015 9.19293C36.0058 9.08785 35.9647 8.98812 35.8971 8.90722C34.2514 6.81443 32.4669 4.86082 30.0343 3.60825C29.9168 3.55754 29.8138 3.47814 29.7347 3.3773C29.6557 3.27646 29.6031 3.15738 29.5817 3.03093C29.444 2.29408 29.225 1.57487 28.9286 0.886598C28.7895 0.519904 28.5349 0.20865 28.2034 0V0Z" fill="black"></path></svg><svg viewBox="0 0 20 18" fill="none" id="telegram-icon"><path fill-rule="evenodd" clip-rule="evenodd" d="M19.4608 0.152905C19.6393 0.302216 19.7255 0.534898 19.6872 0.764481L17.0611 16.5214C17.0244 16.7411 16.8789 16.9273 16.6745 17.0159C16.47 17.1045 16.2346 17.0833 16.0493 16.9597L8.17082 11.7074C8.01771 11.6054 7.91447 11.4437 7.88624 11.2619C7.858 11.08 7.90738 10.8947 8.02233 10.751L10.633 7.48773L6.27303 10.3944C6.077 10.525 5.82597 10.5407 5.61524 10.4353L0.362931 7.80915C0.127693 7.69153 -0.0146529 7.44488 0.00119976 7.18235C0.0170525 6.91983 0.188044 6.6921 0.435726 6.60364L18.8188 0.0382579C19.038 -0.0400244 19.2822 0.00359465 19.4608 0.152905ZM2.32626 7.32275L5.86168 9.09046L13.4231 4.0495C13.6925 3.86994 14.0525 3.91349 14.2712 4.1521C14.49 4.3907 14.5022 4.75314 14.3 5.00591L9.49502 11.0121L15.9328 15.3039L18.2083 1.65058L2.32626 7.32275Z" fill="#666666"></path></svg><svg viewBox="0 0 27 17" fill="none" id="vk-icon"><path d="M0 2.33876C0 1.48373 0.515103 1.02268 1.54531 0.955621L5.51515 0.980769C5.78158 0.980769 5.95921 1.10651 6.04802 1.35799C6.45655 2.61538 6.91392 3.70094 7.42014 4.61465C7.92637 5.52835 8.58801 6.58038 9.40507 7.77071C9.47611 7.9216 9.59157 7.99704 9.75143 7.99704C9.87576 7.99704 9.97345 7.93836 10.0445 7.82101L10.1244 7.54438L10.1511 3.19379C10.1511 2.89201 10.0756 2.69083 9.92461 2.59024C9.77363 2.48965 9.49388 2.4142 9.08535 2.36391C8.76563 2.31361 8.60577 2.12919 8.60577 1.81065C8.60577 1.74359 8.61465 1.69329 8.63241 1.65976C9.00542 0.57002 10.0711 0.0251479 11.8296 0.0251479L13.3216 0C13.9966 0 14.5561 0.15927 15.0001 0.477811C15.4442 0.796351 15.6662 1.29931 15.6662 1.98669V7.69527C15.7906 7.77909 15.906 7.82101 16.0126 7.82101C16.279 7.82101 16.5099 7.67012 16.7053 7.36834C18.6592 4.78649 19.716 3.05966 19.8759 2.18787C19.8759 2.1711 19.8936 2.12919 19.9291 2.06213C20.0535 1.81065 20.2577 1.5927 20.5419 1.40828C20.8261 1.22387 21.0748 1.09813 21.288 1.03107C21.359 0.997535 21.4389 0.980769 21.5277 0.980769H25.6574L25.9239 1.00592C26.2791 1.00592 26.5544 1.16519 26.7498 1.48373C26.8209 1.58432 26.8697 1.69329 26.8964 1.81065C26.923 1.92801 26.9408 2.04536 26.9496 2.16272C26.9585 2.28008 26.963 2.34714 26.963 2.36391V2.53994C26.8386 3.22732 26.5233 3.9608 26.0171 4.74038C25.5109 5.51997 24.867 6.36243 24.0855 7.26775C23.304 8.17308 22.8155 8.76825 22.6201 9.05326C22.4603 9.25444 22.3803 9.43886 22.3803 9.60651C22.3803 9.74063 22.4514 9.89152 22.5935 10.0592L26.4834 14.6864C26.6965 14.9546 26.8031 15.248 26.8031 15.5666C26.8031 15.9522 26.6432 16.2707 26.3235 16.5222C26.0038 16.7737 25.6219 16.9162 25.1779 16.9497L24.7249 16.9749H20.6752C20.6574 16.9749 20.6219 16.979 20.5686 16.9874C20.5153 16.9958 20.4798 17 20.462 17C20.0712 17 19.7071 16.8407 19.3696 16.5222C19.2453 16.3881 18.4105 15.3989 16.8652 13.5547C16.7764 13.4374 16.652 13.3284 16.4922 13.2278C16.4211 13.4961 16.3279 13.8817 16.2124 14.3846C16.097 14.8876 16.0126 15.248 15.9593 15.466L15.8794 15.8935C15.7018 16.4803 15.3287 16.8323 14.7604 16.9497L14.3874 16.9749H11.7763C10.3021 16.9749 8.83224 16.3378 7.36686 15.0636C5.90148 13.7894 4.58264 12.1423 3.41034 10.122C2.23803 8.10182 1.14566 5.75049 0.133216 3.06805C0.0444054 2.8501 0 2.607 0 2.33876ZM16.0126 8.85207C15.6396 8.85207 15.3021 8.75567 15.0001 8.56287C14.6982 8.37007 14.5472 8.10602 14.5472 7.77071V1.98669C14.5472 1.65138 14.4584 1.41248 14.2808 1.26997C14.1032 1.12747 13.7923 1.05621 13.3483 1.05621L11.8296 1.10651C11.0658 1.10651 10.4886 1.23225 10.0978 1.48373C10.8793 1.8358 11.2701 2.40582 11.2701 3.19379V7.61982C11.2346 8.03895 11.0569 8.38683 10.7372 8.66346C10.4175 8.94009 10.0623 9.0784 9.6715 9.0784C9.13863 9.0784 8.7301 8.83531 8.44591 8.34911C7.06046 6.37081 6.03025 4.4931 5.35529 2.71598L5.1155 2.06213L1.57195 2.03698C1.34104 2.03698 1.21227 2.04956 1.18562 2.0747C1.15898 2.09985 1.14566 2.1711 1.14566 2.28846C1.14566 2.43935 1.16342 2.59862 1.19895 2.76627L1.75845 4.17456C3.25048 7.81262 4.87127 10.6795 6.62085 12.7751C8.37042 14.8708 10.0889 15.9186 11.7763 15.9186H14.4406C14.5472 15.9186 14.6271 15.8893 14.6804 15.8306C14.7337 15.7719 14.7781 15.6588 14.8136 15.4911L14.8669 15.2396L15.3732 13.0266C15.5152 12.7249 15.6396 12.5237 15.7462 12.4231C15.9415 12.2387 16.1725 12.1465 16.4389 12.1465C16.8652 12.1465 17.3003 12.3895 17.7444 12.8757L20.0091 15.5917C20.1512 15.8097 20.3022 15.9186 20.462 15.9186H24.8581C25.391 15.9186 25.6574 15.7929 25.6574 15.5414C25.6574 15.4576 25.6308 15.3738 25.5775 15.2899L21.7142 10.7382C21.4123 10.3861 21.2613 10.0089 21.2613 9.60651C21.2613 9.20414 21.4034 8.81854 21.6876 8.4497C21.9185 8.1144 22.367 7.55695 23.0331 6.77737C23.6992 5.99778 24.2809 5.26849 24.7782 4.5895C25.2756 3.9105 25.6042 3.29438 25.764 2.74112L25.8439 2.4142C25.8262 2.38067 25.8173 2.32618 25.8173 2.25074C25.8173 2.1753 25.8084 2.11243 25.7907 2.06213H21.6077C21.3412 2.16272 21.1281 2.31361 20.9682 2.51479L20.8084 2.9926C20.3643 4.14941 19.2009 5.93491 17.3181 8.34911C16.9451 8.68442 16.5099 8.85207 16.0126 8.85207Z" fill="#666666"></path></svg><svg viewBox="0 0 24 19" fill="none" id="youtube-icon"><path d="M15.8509 8.79275L10.6145 5.30184C10.5159 5.23691 10.4016 5.19985 10.2837 5.19459C10.1657 5.18934 10.0486 5.21608 9.94459 5.27198C9.84061 5.32789 9.75368 5.41087 9.69302 5.51215C9.63236 5.61343 9.60022 5.72924 9.6 5.84729V12.8291C9.60013 12.9481 9.6327 13.0648 9.69421 13.1667C9.75572 13.2686 9.84384 13.3518 9.94909 13.4073C10.0524 13.4631 10.1691 13.4895 10.2864 13.4837C10.4037 13.478 10.5172 13.4402 10.6145 13.3746L15.8509 9.88366C15.9409 9.82395 16.0148 9.7429 16.0658 9.64772C16.1169 9.55255 16.1436 9.44621 16.1436 9.3382C16.1436 9.23019 16.1169 9.12385 16.0658 9.02868C16.0148 8.93351 15.9409 8.85245 15.8509 8.79275ZM10.9091 11.6073V7.06911L14.3127 9.3382L10.9091 11.6073ZM23.3891 3.04366C23.2942 2.67547 23.1131 2.33511 22.8609 2.05061C22.6086 1.76611 22.2924 1.54561 21.9382 1.40729C18.2182 -0.0217993 12.2509 1.91553e-05 12 1.91553e-05C11.7491 1.91553e-05 5.78182 -0.0217993 2.06182 1.40729C1.70764 1.54561 1.3914 1.76611 1.13914 2.05061C0.886889 2.33511 0.705838 2.67547 0.610909 3.04366C0.327273 4.11275 0 6.07638 0 9.3382C0 12.6 0.327273 14.5637 0.610909 15.6327C0.705838 16.0009 0.886889 16.3413 1.13914 16.6258C1.3914 16.9103 1.70764 17.1308 2.06182 17.2691C5.78182 18.6982 11.7491 18.6764 12 18.6764H12.0764C12.8291 18.6764 18.3927 18.6327 21.9382 17.2691C22.2924 17.1308 22.6086 16.9103 22.8609 16.6258C23.1131 16.3413 23.2942 16.0009 23.3891 15.6327C23.6727 14.5637 24 12.6 24 9.3382C24 6.07638 23.6727 4.11275 23.3891 3.04366ZM22.1236 15.3055C22.0807 15.472 21.999 15.6259 21.8853 15.7548C21.7715 15.8838 21.6289 15.984 21.4691 16.0473C17.9782 17.3891 12.0655 17.3673 12 17.3673C11.9345 17.3673 6.02182 17.3891 2.53091 16.0473C2.37107 15.984 2.22846 15.8838 2.11471 15.7548C2.00096 15.6259 1.91929 15.472 1.87636 15.3055C1.61455 14.3018 1.30909 12.4582 1.30909 9.3382C1.30909 6.2182 1.61455 4.37457 1.87636 3.37093C1.91929 3.20445 2.00096 3.05047 2.11471 2.92156C2.22846 2.79264 2.37107 2.69243 2.53091 2.62911C6.02182 1.28729 11.9345 1.30911 12 1.30911C12.0655 1.30911 17.9782 1.28729 21.4691 2.62911C21.6289 2.69243 21.7715 2.79264 21.8853 2.92156C21.999 3.05047 22.0807 3.20445 22.1236 3.37093C22.3855 4.37457 22.6909 6.2182 22.6909 9.3382C22.6909 12.4582 22.3855 14.3018 22.1236 15.3055Z" fill="#666666"></path></svg></svg>