<svg xmlns="http://www.w3.org/2000/svg"><style>:root svg:not(:target){display:none}</style><svg viewBox="0 0 27 35" fill="none" id="html-academy"><path d="M13.6426 0.515754L13.5 0.5L0 1.90733V26.5129L13.5 34.5L27 26.5129V1.90733L13.6426 0.515754ZM25.2344 25.5151L13.5 32.4573L1.76561 25.5151V15.4293L13.4507 22.3451L13.4701 23.5984L5.45351 18.8548L5.44295 20.0801L13.4894 24.8885L13.5088 26.175L5.46408 21.4174L5.45351 22.6427L13.5 27.4511L21.6239 22.6182V21.3929V17.409L25.2432 15.2595L25.2344 25.5151ZM25.2344 13.9519L22.0147 15.8319L20.5325 16.7071L13.4666 12.5201L13.456 13.7454L19.4957 17.318L19.4429 17.3495L19.3126 17.4247L18.4536 17.9166L13.4666 14.9689L13.456 16.1942L17.3921 18.5222L16.4591 19.1314L16.438 19.1436L13.4666 17.402L13.456 18.6273L15.4029 19.7615L13.4155 20.9483L1.7973 14.0762L13.4349 7.11831L25.2344 13.9519ZM25.2344 12.7266L13.4401 5.81075L1.76561 12.7196V3.4897L13.5 2.26442L25.2344 3.4897V12.7266Z" fill="#666666"></path></svg><svg viewBox="0 0 70 59" fill="none" id="logo-pic"><path d="M59.7434 23.8063C58.0235 19.7092 55.2535 16.1318 51.7097 13.4305C48.1658 10.7293 43.9717 8.99857 39.5455 8.41088C35.1192 7.82319 30.6153 8.39905 26.4827 10.0811C22.35 11.7631 18.7329 14.4925 15.9918 17.9973C13.2507 21.5021 11.4814 25.6599 10.8601 30.0564C10.2388 34.4529 10.7873 38.9344 12.4509 43.0545C14.1145 47.1745 16.8351 50.7892 20.3416 53.5382C23.8482 56.2872 28.0181 58.0746 32.4359 58.7223C31.8572 56.6491 31.2685 54.3578 30.7497 51.9275C32.259 52.9009 33.8476 53.747 35.4989 54.457C35.4989 54.457 35.6186 56.5995 35.7782 58.9901C37.5624 59.0207 39.3448 58.8644 41.0961 58.5239C41.0508 58.2746 41.0508 58.0193 41.0961 57.77C41.3854 55.9151 42.1836 52.5723 42.3432 50.4198C43.4939 49.3498 44.47 48.1082 45.2366 46.7397L45.1767 47.1762C44.628 51.4018 43.4806 55.9151 42.7822 57.1649C42.5561 57.5786 42.2778 57.962 41.9541 58.3056C45.5656 57.4633 48.9497 55.8502 51.8717 53.5781C54.7937 51.3059 57.1837 48.4292 58.876 45.1473C60.5683 41.8653 61.5224 38.2568 61.6722 34.5717C61.822 30.8867 61.1638 27.2133 59.7434 23.8063ZM58.2768 27.5657C57.8378 27.9923 56.9299 28.2799 56.7802 26.9904C56.6305 25.7009 56.5906 24.7983 56.5906 24.7983C56.5906 24.7983 54.665 21.3959 53.9467 21.3563C53.2283 21.3166 48.13 24.7983 46.7831 26.3159C45.6157 27.5955 45.3863 27.5062 45.3863 29.7579C45.3863 31.4541 45.6058 37.862 45.486 42.7621L37.3546 44.9146C34.7988 45.6438 32.1997 46.2137 29.5724 46.6207L28.5747 40.8378H28.435L25.8709 27.774C25.8709 27.774 22.0696 26.3457 20.6728 25.9588C20.0169 25.6735 19.2926 25.5808 18.5855 25.6915C17.8783 25.8023 17.2178 26.1118 16.6819 26.5837C16.1352 27.0597 15.698 27.6471 15.4001 28.3061C15.1023 28.9651 14.9507 29.6802 14.9558 30.4027C15.1667 30.8637 15.3273 31.3459 15.4347 31.841C15.4846 32.3171 14.2375 32.2675 13.4393 32.2675C12.6411 32.2675 12.5214 30.8391 13.15 29.1627C13.6403 27.8737 14.2482 26.632 14.9658 25.4529C15.5056 24.3997 16.2018 23.4333 17.0311 22.5862C17.0311 22.5862 17.1708 22.249 18.2782 22.3482C19.3857 22.4474 25.5416 22.7747 25.5416 22.7747L25.5915 20.523C32.2826 19.6045 39.0309 19.1603 45.7853 19.1938C45.7853 19.7989 45.7853 20.404 45.7853 21.0091C48.3438 19.8483 51.0986 19.1754 53.9068 19.0252C54.057 19.0214 54.2059 19.0548 54.34 19.1223C54.474 19.1898 54.5892 19.2894 54.675 19.4121C55.0142 19.8386 57.0795 22.3879 57.319 22.7549C57.9896 23.7078 58.5995 24.7017 59.1448 25.7307C58.9579 26.3822 58.6646 26.9988 58.2768 27.5558V27.5657Z" fill="#FDC305"></path><path d="M56.3312 21.4951C56.8001 22.0903 57.2092 22.616 57.3289 22.7747C57.9996 23.7277 58.6094 24.7215 59.1547 25.7505C58.9649 26.3806 58.6753 26.9767 58.2967 27.5161C57.8577 27.9427 56.9498 28.2303 56.8001 26.9408C56.6505 25.6513 56.5906 24.7983 56.5906 24.7983C56.5906 24.7983 54.665 21.3959 53.9467 21.3563C53.2283 21.3166 48.13 24.7983 46.783 26.3159C45.6157 27.5955 45.3862 27.5062 45.3862 29.7579C45.3862 31.2458 45.5558 36.3542 45.5159 40.8973C47.3218 41.0957 49.9757 41.5916 50.7739 42.7621C50.7739 42.7621 50.4846 35.64 58.5661 39.3697C58.5661 39.3697 58.8455 29.6587 70 32.1485C66.2081 27.7223 61.5597 24.0994 56.3312 21.4951Z" fill="#F06351"></path><path d="M45.8252 19.1938C45.8658 13.6973 45.3982 8.2087 44.4284 2.79724C44.4284 2.79724 44.2788 1.50773 43.5604 2.55918C42.9676 3.81617 42.5642 5.15308 42.3631 6.5269C38.0981 6.25483 33.817 6.36771 29.5724 6.86415C28.7543 4.13635 27.3575 2.89643 26.689 3.22377C26.0205 3.55111 25.9407 6.4773 25.9407 6.4773L25.6115 20.523C32.3091 19.6036 39.0641 19.1594 45.8252 19.1938Z" fill="#F06351"></path><path d="M45.2458 46.7397C45.3755 45.6784 45.4453 44.2698 45.4852 42.7125L37.3542 44.865C34.7996 45.611 32.2006 46.1974 29.5724 46.6207L30.6798 51.5804C30.6798 51.6895 30.6798 51.7986 30.7496 51.9077C32.2589 52.8811 33.8474 53.7272 35.4985 54.4371C37.9116 53.2903 40.2099 51.9186 42.3625 50.3404V50.4C43.5079 49.3352 44.4805 48.1005 45.2458 46.7397Z" fill="#E55645"></path><path d="M31.927 16.0891C31.8771 15.9899 32.9247 16.7636 33.3337 17.0017C33.7428 17.2397 33.9423 17.4183 33.9423 17.5869C33.9423 17.7556 33.6829 17.9242 33.3238 17.9242C32.9646 17.9242 32.4059 17.8051 32.3261 17.6663C32.2463 17.5274 32.9247 17.6663 33.2639 17.6663H33.5532C32.939 17.2195 32.3915 16.6885 31.927 16.0891Z" fill="black"></path><path d="M39.4099 16.1982C39.4099 16.1982 38.4122 17.4679 38.3224 17.5274C38.2326 17.5869 38.1528 17.8647 38.512 17.8151C38.9243 17.7539 39.3312 17.661 39.7291 17.5373C39.8389 17.4778 39.799 17.3389 39.6094 17.3588C39.4199 17.3786 38.931 17.4084 38.6117 17.4679L39.4598 16.2081C39.4598 16.2081 39.4897 16.0891 39.4099 16.1982Z" fill="black"></path><path d="M36.277 22.2589C36.7395 22.0563 37.1217 21.7077 37.3645 21.267C37.6438 20.6123 37.3645 20.3643 36.9255 20.275C36.3216 20.1655 35.6983 20.2859 35.1796 20.6123C34.7905 20.9793 34.8404 21.3364 35.1796 21.6042C35.5166 21.867 35.8852 22.0869 36.277 22.2589Z" fill="black"></path><path d="M35.9177 23.5087C35.8031 23.7337 35.6475 23.9355 35.4587 24.1039C35.1746 24.3312 34.8253 24.4631 34.4611 24.4808C33.9118 24.5344 33.3626 24.3784 32.9247 24.0444C32.7236 23.9274 32.5446 23.7764 32.3959 23.598C32.2961 23.49 32.1734 23.4053 32.0367 23.35C32.0367 23.35 32.785 27.4269 34.6008 28.0815C36.4165 28.7362 36.7557 27.3277 36.8056 26.9507C36.8664 25.8218 36.5811 24.7011 35.9875 23.7369C35.9875 23.4393 35.9676 23.6377 35.9177 23.5087Z" fill="#F06351"></path><path d="M34.2216 24.6395C33.7547 24.5728 33.3063 24.4127 32.9033 24.1689C32.5004 23.9251 32.1513 23.6027 31.8771 23.2211C31.8526 23.1938 31.839 23.1585 31.839 23.1219C31.839 23.0853 31.8526 23.05 31.8771 23.0227C31.8901 23.0095 31.9056 22.999 31.9228 22.9919C31.9399 22.9847 31.9583 22.981 31.9769 22.981C31.9954 22.981 32.0138 22.9847 32.031 22.9919C32.0481 22.999 32.0636 23.0095 32.0766 23.0227C32.3235 23.3671 32.6367 23.6593 32.9981 23.8823C33.3595 24.1054 33.7618 24.2549 34.1817 24.3221C34.5139 24.2973 34.8355 24.1945 35.1199 24.022C35.4044 23.8496 35.6436 23.6125 35.8179 23.3302L35.9576 23.1417L36.0573 23.36C36.0573 23.36 36.4364 24.1138 37.055 24.1535C37.6736 24.1932 38.1125 23.7369 38.6812 22.8739C38.7024 22.8423 38.7353 22.8204 38.7727 22.813C38.8101 22.8055 38.849 22.8132 38.8807 22.8342C38.9125 22.8553 38.9345 22.888 38.942 22.9252C38.9495 22.9624 38.9418 23.001 38.9206 23.0326C38.2555 24.0047 37.627 24.4709 37.035 24.4312C36.8063 24.4011 36.5871 24.3204 36.3938 24.1951C36.2004 24.0698 36.0378 23.9031 35.9177 23.7071C35.7225 23.9781 35.4689 24.2025 35.1755 24.3638C34.8821 24.5251 34.5563 24.6193 34.2216 24.6395Z" fill="black"></path><path d="M36.1771 37.9909C38.2433 37.9909 39.9183 36.3255 39.9183 34.2712C39.9183 32.2168 38.2433 30.5514 36.1771 30.5514C34.1108 30.5514 32.4358 32.2168 32.4358 34.2712C32.4358 36.3255 34.1108 37.9909 36.1771 37.9909Z" fill="#FDC305"></path><path d="M41.1355 31.2458L38.0128 32.5452L39.1601 26.9607L31.6776 36.6419L34.8003 35.3425L33.653 40.937L41.1355 31.2458ZM33.7627 35.0449L37.913 29.6786L37.1049 33.6463L39.1003 32.8329L34.92 38.2092L35.7282 34.2414L33.7627 35.0449Z" fill="#111111"></path><path d="M32.3659 33.5868C32.983 33.5868 33.4833 33.0894 33.4833 32.4758C33.4833 31.8622 32.983 31.3648 32.3659 31.3648C31.7488 31.3648 31.2485 31.8622 31.2485 32.4758C31.2485 33.0894 31.7488 33.5868 32.3659 33.5868Z" fill="#111111"></path><path d="M38.871 37.614C39.3063 37.614 39.6592 37.2631 39.6592 36.8304C39.6592 36.3976 39.3063 36.0467 38.871 36.0467C38.4358 36.0467 38.0829 36.3976 38.0829 36.8304C38.0829 37.2631 38.4358 37.614 38.871 37.614Z" fill="#111111"></path><path d="M39.8288 35.4615C40.0216 35.4615 40.178 35.3061 40.178 35.1143C40.178 34.9226 40.0216 34.7672 39.8288 34.7672C39.6359 34.7672 39.4796 34.9226 39.4796 35.1143C39.4796 35.3061 39.6359 35.4615 39.8288 35.4615Z" fill="#111111"></path><path d="M45.7753 20.9892C43.9742 22.6034 42.278 24.3295 40.6969 26.1572C39.1219 27.9717 37.3445 29.6023 35.399 31.0177C35.1795 30.4919 33.7727 29.5099 33.7727 29.5099C33.7727 29.5099 30.6399 27.3773 28.5846 25.7009C27.4735 24.7809 26.4268 23.7867 25.4517 22.7251L23.4563 22.616C26.3368 26.7991 30.5566 29.8897 35.4289 31.3847C36.287 31.2458 38.7014 29.5298 40.5073 28.1311C42.6438 26.3247 44.6446 24.3654 46.4936 22.2688C46.9906 21.6816 47.376 21.0094 47.631 20.285C46.4936 20.6619 45.7753 20.9892 45.7753 20.9892Z" fill="#F06351"></path><path d="M65.0708 3.47176L56.6305 12.8356L55.4133 10.8616L63.5443 0L65.0708 3.47176Z" fill="#FDC305"></path><path d="M62.507 17.1207L68.0341 13.0439L67.2559 9.33406L61.8685 14.1052L62.507 17.1207Z" fill="#FDC305"></path><path d="M59.7833 48.9716L65.899 52.1259L68.902 49.8048L62.2276 47.077L59.7833 48.9716Z" fill="#FDC305"></path><path d="M1.94543 5.92182L5.00828 2.58894L14.2766 11.5163L13.0595 13.7779L1.94543 5.92182Z" fill="#FDC305"></path><path d="M7.36287 16.1486L2.67383 13.0439L0.279419 16.8827L5.41742 19.2633L7.36287 16.1486Z" fill="#FDC305"></path><path d="M13.878 52.1259L9.33862 55.4489L12.1321 59L16.1427 55.0124L13.878 52.1259Z" fill="#FDC305"></path><path d="M25.8708 27.774C25.8708 27.774 22.0695 26.3457 20.6727 25.9588C20.0169 25.6735 19.2926 25.5808 18.5855 25.6915C17.8783 25.8023 17.2178 26.1118 16.6819 26.5837C16.1351 27.0597 15.6979 27.6471 15.4001 28.3061C15.1022 28.9651 14.9507 29.6802 14.9558 30.4027C15.1667 30.8637 15.3273 31.3459 15.4347 31.841C15.4846 32.3171 14.2374 32.2675 13.4393 32.2675C12.6411 32.2675 12.5214 30.8391 13.1499 29.1627C13.6403 27.8737 14.2481 26.632 14.9658 25.4529C9.52821 28.27 0 34.7771 0 34.7771C2.72546 34.6137 5.46016 34.6933 8.17132 35.0151C13.4093 35.5409 13.1599 39.6474 13.1599 39.6474C15.0022 39.1425 16.8798 38.7745 18.7771 38.5464C20.8922 38.4075 21.0419 40.6493 21.0419 40.6493L21.5707 44.4781C22.3736 43.6145 23.2591 42.8305 24.2146 42.1372C25.4463 41.157 27.0145 40.6942 28.5846 40.8477L25.8708 27.774Z" fill="#F06351"></path></svg><svg viewBox="0 0 118 21" fill="none" id="logo-text"><path d="M1.42351 19.2159C0.391283 17.7277 -0.102273 15.9474 0.0207226 14.156V6.84405C-0.109487 5.03944 0.376607 3.24353 1.40346 1.73542C2.33197 0.572011 3.91845 -0.00644536 6.16291 5.41628e-05C8.40736 0.00655368 9.92704 0.516766 10.722 1.53069C11.6912 2.78717 12.1642 4.3407 12.0546 5.90812V7.62399H7.90636V5.76188C7.90077 5.27192 7.85723 4.78307 7.77611 4.29949C7.72595 3.9494 7.56075 3.6245 7.30517 3.3733C7.1474 3.24166 6.96423 3.14195 6.76637 3.08001C6.56852 3.01807 6.35995 2.99515 6.15288 3.01258C5.8555 2.9694 5.55167 3.01643 5.28273 3.14726C5.0138 3.2781 4.79283 3.48638 4.6499 3.74378C4.38644 4.42844 4.27049 5.15851 4.30923 5.88862V15.1699C4.26352 15.9049 4.39743 16.6399 4.7 17.3148C4.84457 17.5582 5.05909 17.7553 5.31721 17.8817C5.57533 18.0082 5.86578 18.0585 6.15288 18.0265C6.435 18.0653 6.72251 18.0164 6.97441 17.8869C7.22631 17.7573 7.42973 17.5537 7.55567 17.305C7.79804 16.6191 7.90347 15.8944 7.86628 15.1699V13.2201H12.0145V14.9067C12.1366 16.4972 11.7023 18.0812 10.7821 19.4011C9.90032 20.4735 8.3773 21 6.21301 21C4.04871 21 2.35536 20.415 1.42351 19.2159Z" fill="#111111"></path><path d="M17.7065 0.282784H22.4559L26.4638 20.7563H22.516L21.8046 16.2326H18.478L17.6764 20.727H13.6685L17.7065 0.282784ZM21.3637 13.6588L20.1012 5.4304L18.8487 13.6588H21.3637Z" fill="#111111"></path><path d="M29.5405 3.36356H26.2941V0.282784H37.0354V3.36356H33.829V20.727H29.5305L29.5405 3.36356Z" fill="#111111"></path><path d="M45.4631 0.282784H53.6093V2.40813H48.399V9.16438H52.6273V11.1825H48.399V18.6797H53.6594V20.727H45.4631V0.282784Z" fill="#444444"></path><path d="M56.0247 0.282784H58.0286L64.0406 13.8635V0.282784H66.4854V20.7563H64.6117L58.5998 6.7953V20.727H56.1148L56.0247 0.282784Z" fill="#444444"></path><path d="M69.7224 0.282784H77.8585V2.40813H72.6482V9.16438H76.9167V11.1825H72.6883V18.6797H77.9187V20.727H69.7224V0.282784Z" fill="#444444"></path><path d="M80.2739 0.282779H84.5023C86.1687 0.152311 87.8281 0.605237 89.1816 1.55993C90.1836 2.40812 90.6745 3.79252 90.6745 5.71313C90.6745 8.31293 89.8095 9.90207 88.0794 10.4805L91.0854 20.727H88.2397L85.4843 11.1337H83.2097V20.727H80.2739V0.282779ZM84.2819 9.05713C85.2472 9.148 86.2124 8.88364 86.9872 8.31618C87.3021 7.95359 87.5375 7.53216 87.6788 7.0778C87.8201 6.62344 87.8643 6.14576 87.8089 5.67413C87.829 5.0127 87.7307 4.3529 87.5183 3.72427C87.4321 3.49248 87.2991 3.27987 87.127 3.09901C86.9549 2.91815 86.7472 2.77273 86.5163 2.67135C85.8658 2.41169 85.1644 2.29517 84.4622 2.33013H83.1697V9.09613L84.2819 9.05713Z" fill="#444444"></path><path d="M94.623 19.2159C93.6653 17.643 93.2215 15.8239 93.3505 14V7.17552C93.316 5.85855 93.4848 4.54399 93.8515 3.27581C94.1409 2.32238 94.7559 1.49354 95.595 0.926233C96.6079 0.332253 97.7805 0.0470228 98.9616 0.107293C99.7256 0.0365995 100.496 0.129098 101.22 0.378323C101.943 0.627548 102.602 1.02749 103.15 1.55019C104.111 2.86053 104.566 4.45937 104.432 6.0641V6.82455H101.677V6.19084C101.696 5.4329 101.635 4.67506 101.497 3.92901C101.405 3.45088 101.134 3.02319 100.735 2.72985C100.215 2.43117 99.6144 2.29188 99.0117 2.33013C98.3572 2.27565 97.7067 2.47149 97.1981 2.87609C96.7826 3.25974 96.511 3.76769 96.4266 4.31898C96.2997 5.12206 96.2427 5.93414 96.2563 6.74655V14.3412C96.1767 15.4953 96.3793 16.6513 96.8474 17.7145C97.1193 18.0415 97.4644 18.3036 97.8564 18.4809C98.2484 18.6582 98.6768 18.746 99.109 18.7375C99.5411 18.7291 99.9656 18.6246 100.35 18.4321C100.734 18.2396 101.068 17.9641 101.326 17.6267C101.809 16.5023 102.018 15.2844 101.938 14.0683V12.6254H99.2722V10.6073H104.583V20.727H102.769L102.479 18.3774C102.249 19.158 101.755 19.8401 101.076 20.3127C100.398 20.7853 99.5747 21.0207 98.7412 20.9805C97.9576 21.0477 97.1692 20.9212 96.4492 20.6127C95.7293 20.3042 95.1011 19.8237 94.623 19.2159Z" fill="#444444"></path><path d="M110.675 13.5126L106.136 0.282784H108.862L112.078 10.1491L115.245 0.282784H118L113.491 13.5126V20.727H110.685L110.675 13.5126Z" fill="#444444"></path></svg><svg viewBox="0 0 20 18" fill="none" id="telegram-icon"><path fill-rule="evenodd" clip-rule="evenodd" d="M19.4608 0.152905C19.6393 0.302216 19.7255 0.534898 19.6872 0.764481L17.0611 16.5214C17.0244 16.7411 16.8789 16.9273 16.6745 17.0159C16.47 17.1045 16.2346 17.0833 16.0493 16.9597L8.17082 11.7074C8.01771 11.6054 7.91447 11.4437 7.88624 11.2619C7.858 11.08 7.90738 10.8947 8.02233 10.751L10.633 7.48773L6.27303 10.3944C6.077 10.525 5.82597 10.5407 5.61524 10.4353L0.362931 7.80915C0.127693 7.69153 -0.0146529 7.44488 0.00119976 7.18235C0.0170525 6.91983 0.188044 6.6921 0.435726 6.60364L18.8188 0.0382579C19.038 -0.0400244 19.2822 0.00359465 19.4608 0.152905ZM2.32626 7.32275L5.86168 9.09046L13.4231 4.0495C13.6925 3.86994 14.0525 3.91349 14.2712 4.1521C14.49 4.3907 14.5022 4.75314 14.3 5.00591L9.49502 11.0121L15.9328 15.3039L18.2083 1.65058L2.32626 7.32275Z" fill="#666666"></path></svg><svg viewBox="0 0 27 17" fill="none" id="vk-icon"><path d="M0 2.33876C0 1.48373 0.515103 1.02268 1.54531 0.955621L5.51515 0.980769C5.78158 0.980769 5.95921 1.10651 6.04802 1.35799C6.45655 2.61538 6.91392 3.70094 7.42014 4.61465C7.92637 5.52835 8.58801 6.58038 9.40507 7.77071C9.47611 7.9216 9.59157 7.99704 9.75143 7.99704C9.87576 7.99704 9.97345 7.93836 10.0445 7.82101L10.1244 7.54438L10.1511 3.19379C10.1511 2.89201 10.0756 2.69083 9.92461 2.59024C9.77363 2.48965 9.49388 2.4142 9.08535 2.36391C8.76563 2.31361 8.60577 2.12919 8.60577 1.81065C8.60577 1.74359 8.61465 1.69329 8.63241 1.65976C9.00542 0.57002 10.0711 0.0251479 11.8296 0.0251479L13.3216 0C13.9966 0 14.5561 0.15927 15.0001 0.477811C15.4442 0.796351 15.6662 1.29931 15.6662 1.98669V7.69527C15.7906 7.77909 15.906 7.82101 16.0126 7.82101C16.279 7.82101 16.5099 7.67012 16.7053 7.36834C18.6592 4.78649 19.716 3.05966 19.8759 2.18787C19.8759 2.1711 19.8936 2.12919 19.9291 2.06213C20.0535 1.81065 20.2577 1.5927 20.5419 1.40828C20.8261 1.22387 21.0748 1.09813 21.288 1.03107C21.359 0.997535 21.4389 0.980769 21.5277 0.980769H25.6574L25.9239 1.00592C26.2791 1.00592 26.5544 1.16519 26.7498 1.48373C26.8209 1.58432 26.8697 1.69329 26.8964 1.81065C26.923 1.92801 26.9408 2.04536 26.9496 2.16272C26.9585 2.28008 26.963 2.34714 26.963 2.36391V2.53994C26.8386 3.22732 26.5233 3.9608 26.0171 4.74038C25.5109 5.51997 24.867 6.36243 24.0855 7.26775C23.304 8.17308 22.8155 8.76825 22.6201 9.05326C22.4603 9.25444 22.3803 9.43886 22.3803 9.60651C22.3803 9.74063 22.4514 9.89152 22.5935 10.0592L26.4834 14.6864C26.6965 14.9546 26.8031 15.248 26.8031 15.5666C26.8031 15.9522 26.6432 16.2707 26.3235 16.5222C26.0038 16.7737 25.6219 16.9162 25.1779 16.9497L24.7249 16.9749H20.6752C20.6574 16.9749 20.6219 16.979 20.5686 16.9874C20.5153 16.9958 20.4798 17 20.462 17C20.0712 17 19.7071 16.8407 19.3696 16.5222C19.2453 16.3881 18.4105 15.3989 16.8652 13.5547C16.7764 13.4374 16.652 13.3284 16.4922 13.2278C16.4211 13.4961 16.3279 13.8817 16.2124 14.3846C16.097 14.8876 16.0126 15.248 15.9593 15.466L15.8794 15.8935C15.7018 16.4803 15.3287 16.8323 14.7604 16.9497L14.3874 16.9749H11.7763C10.3021 16.9749 8.83224 16.3378 7.36686 15.0636C5.90148 13.7894 4.58264 12.1423 3.41034 10.122C2.23803 8.10182 1.14566 5.75049 0.133216 3.06805C0.0444054 2.8501 0 2.607 0 2.33876ZM16.0126 8.85207C15.6396 8.85207 15.3021 8.75567 15.0001 8.56287C14.6982 8.37007 14.5472 8.10602 14.5472 7.77071V1.98669C14.5472 1.65138 14.4584 1.41248 14.2808 1.26997C14.1032 1.12747 13.7923 1.05621 13.3483 1.05621L11.8296 1.10651C11.0658 1.10651 10.4886 1.23225 10.0978 1.48373C10.8793 1.8358 11.2701 2.40582 11.2701 3.19379V7.61982C11.2346 8.03895 11.0569 8.38683 10.7372 8.66346C10.4175 8.94009 10.0623 9.0784 9.6715 9.0784C9.13863 9.0784 8.7301 8.83531 8.44591 8.34911C7.06046 6.37081 6.03025 4.4931 5.35529 2.71598L5.1155 2.06213L1.57195 2.03698C1.34104 2.03698 1.21227 2.04956 1.18562 2.0747C1.15898 2.09985 1.14566 2.1711 1.14566 2.28846C1.14566 2.43935 1.16342 2.59862 1.19895 2.76627L1.75845 4.17456C3.25048 7.81262 4.87127 10.6795 6.62085 12.7751C8.37042 14.8708 10.0889 15.9186 11.7763 15.9186H14.4406C14.5472 15.9186 14.6271 15.8893 14.6804 15.8306C14.7337 15.7719 14.7781 15.6588 14.8136 15.4911L14.8669 15.2396L15.3732 13.0266C15.5152 12.7249 15.6396 12.5237 15.7462 12.4231C15.9415 12.2387 16.1725 12.1465 16.4389 12.1465C16.8652 12.1465 17.3003 12.3895 17.7444 12.8757L20.0091 15.5917C20.1512 15.8097 20.3022 15.9186 20.462 15.9186H24.8581C25.391 15.9186 25.6574 15.7929 25.6574 15.5414C25.6574 15.4576 25.6308 15.3738 25.5775 15.2899L21.7142 10.7382C21.4123 10.3861 21.2613 10.0089 21.2613 9.60651C21.2613 9.20414 21.4034 8.81854 21.6876 8.4497C21.9185 8.1144 22.367 7.55695 23.0331 6.77737C23.6992 5.99778 24.2809 5.26849 24.7782 4.5895C25.2756 3.9105 25.6042 3.29438 25.764 2.74112L25.8439 2.4142C25.8262 2.38067 25.8173 2.32618 25.8173 2.25074C25.8173 2.1753 25.8084 2.11243 25.7907 2.06213H21.6077C21.3412 2.16272 21.1281 2.31361 20.9682 2.51479L20.8084 2.9926C20.3643 4.14941 19.2009 5.93491 17.3181 8.34911C16.9451 8.68442 16.5099 8.85207 16.0126 8.85207Z" fill="#666666"></path></svg><svg viewBox="0 0 24 19" fill="none" id="youtube-icon"><path d="M15.8509 8.79275L10.6145 5.30184C10.5159 5.23691 10.4016 5.19985 10.2837 5.19459C10.1657 5.18934 10.0486 5.21608 9.94459 5.27198C9.84061 5.32789 9.75368 5.41087 9.69302 5.51215C9.63236 5.61343 9.60022 5.72924 9.6 5.84729V12.8291C9.60013 12.9481 9.6327 13.0648 9.69421 13.1667C9.75572 13.2686 9.84384 13.3518 9.94909 13.4073C10.0524 13.4631 10.1691 13.4895 10.2864 13.4837C10.4037 13.478 10.5172 13.4402 10.6145 13.3746L15.8509 9.88366C15.9409 9.82395 16.0148 9.7429 16.0658 9.64772C16.1169 9.55255 16.1436 9.44621 16.1436 9.3382C16.1436 9.23019 16.1169 9.12385 16.0658 9.02868C16.0148 8.93351 15.9409 8.85245 15.8509 8.79275ZM10.9091 11.6073V7.06911L14.3127 9.3382L10.9091 11.6073ZM23.3891 3.04366C23.2942 2.67547 23.1131 2.33511 22.8609 2.05061C22.6086 1.76611 22.2924 1.54561 21.9382 1.40729C18.2182 -0.0217993 12.2509 1.91553e-05 12 1.91553e-05C11.7491 1.91553e-05 5.78182 -0.0217993 2.06182 1.40729C1.70764 1.54561 1.3914 1.76611 1.13914 2.05061C0.886889 2.33511 0.705838 2.67547 0.610909 3.04366C0.327273 4.11275 0 6.07638 0 9.3382C0 12.6 0.327273 14.5637 0.610909 15.6327C0.705838 16.0009 0.886889 16.3413 1.13914 16.6258C1.3914 16.9103 1.70764 17.1308 2.06182 17.2691C5.78182 18.6982 11.7491 18.6764 12 18.6764H12.0764C12.8291 18.6764 18.3927 18.6327 21.9382 17.2691C22.2924 17.1308 22.6086 16.9103 22.8609 16.6258C23.1131 16.3413 23.2942 16.0009 23.3891 15.6327C23.6727 14.5637 24 12.6 24 9.3382C24 6.07638 23.6727 4.11275 23.3891 3.04366ZM22.1236 15.3055C22.0807 15.472 21.999 15.6259 21.8853 15.7548C21.7715 15.8838 21.6289 15.984 21.4691 16.0473C17.9782 17.3891 12.0655 17.3673 12 17.3673C11.9345 17.3673 6.02182 17.3891 2.53091 16.0473C2.37107 15.984 2.22846 15.8838 2.11471 15.7548C2.00096 15.6259 1.91929 15.472 1.87636 15.3055C1.61455 14.3018 1.30909 12.4582 1.30909 9.3382C1.30909 6.2182 1.61455 4.37457 1.87636 3.37093C1.91929 3.20445 2.00096 3.05047 2.11471 2.92156C2.22846 2.79264 2.37107 2.69243 2.53091 2.62911C6.02182 1.28729 11.9345 1.30911 12 1.30911C12.0655 1.30911 17.9782 1.28729 21.4691 2.62911C21.6289 2.69243 21.7715 2.79264 21.8853 2.92156C21.999 3.05047 22.0807 3.20445 22.1236 3.37093C22.3855 4.37457 22.6909 6.2182 22.6909 9.3382C22.6909 12.4582 22.3855 14.3018 22.1236 15.3055Z" fill="#666666"></path></svg></svg>